<?xml version="1.0" encoding="UTF-8" standalone="no"?><!-- Generator: Gravit.io --><svg xmlns="http://www.w3.org/2000/svg" xmlns:xlink="http://www.w3.org/1999/xlink" style="isolation:isolate" viewBox="0 0 340.158 112.24" width="340.158pt" height="112.24pt"><defs><clipPath id="_clipPath_pnSH0lpwBmMCocc7hETJGuRmP8iAF2ub"><rect width="340.158" height="112.24"/></clipPath></defs><g clip-path="url(#_clipPath_pnSH0lpwBmMCocc7hETJGuRmP8iAF2ub)"><g><linearGradient id="_lgradient_0" x1="0" y1="0.5" x2="6.123233995736766e-17" y2="1.5" gradientTransform="matrix(86.798,0,0,16.268,51.897,0)" gradientUnits="userSpaceOnUse"><stop offset="0%" stop-opacity="1" style="stop-color:rgb(208,235,236)"/><stop offset="8.000000000000014%" stop-opacity="1" style="stop-color:rgb(124,203,203)"/><stop offset="100%" stop-opacity="1" style="stop-color:rgb(0,159,170)"/></linearGradient><path d=" M 64.345 0 L 51.897 16.268 L 138.695 16.268 L 126.248 0 L 64.345 0 Z " fill="url(#_lgradient_0)"/><linearGradient id="_lgradient_1" x1="0" y1="0.5" x2="1" y2="0.5" gradientTransform="matrix(86.798,0,0,47.634,51.897,16.268)" gradientUnits="userSpaceOnUse"><stop offset="0%" stop-opacity="1" style="stop-color:rgb(124,203,203)"/><stop offset="8%" stop-opacity="1" style="stop-color:rgb(124,203,203)"/><stop offset="100%" stop-opacity="1" style="stop-color:rgb(0,159,170)"/></linearGradient><path d=" M 51.897 16.268 L 95.296 63.902 L 138.695 16.268 L 51.897 16.268 Z " fill="url(#_lgradient_1)"/><path d=" M 95.328 63.824 L 121.935 16.28 L 95.307 0.013 L 68.679 16.28 L 95.284 63.824 L 95.284 63.902 L 95.307 63.864 L 95.328 63.902 L 95.328 63.824 Z " fill-rule="evenodd" fill="rgb(0,128,132)"/><path d=" M 95.318 63.824 L 110.666 16.28 L 95.307 0.013 L 79.948 16.28 L 95.294 63.824 L 95.294 63.902 L 95.307 63.864 L 95.318 63.902 L 95.318 63.824 Z " fill="none"/><linearGradient id="_lgradient_2" x1="0" y1="0.5" x2="6.123233995736766e-17" y2="-0.5" gradientTransform="matrix(16.199,0,0,47.622,87.207,16.28)" gradientUnits="userSpaceOnUse"><stop offset="100%" stop-opacity="1" style="stop-color:rgb(208,235,236)"/><stop offset="100%" stop-opacity="1" style="stop-color:rgb(208,235,236)"/><stop offset="100%" stop-opacity="1" style="stop-color:rgb(0,159,170)"/></linearGradient><path d=" M 95.313 63.824 L 103.405 16.28 L 87.207 16.28 L 95.3 63.824 L 95.3 63.902 L 95.308 63.864 L 95.314 63.902 L 95.313 63.824 Z " fill="url(#_lgradient_2)"/><path d=" M 110.666 16.28 L 95.307 0.013 L 79.948 16.28 L 110.666 16.28 Z " fill="none"/><path d=" M 64.345 0 L 79.948 16.28 L 95.307 0.013 L 64.345 0 Z " fill="none"/><path d=" M 126.267 0 L 110.666 16.28 L 95.307 0.013 L 126.267 0 Z " fill="none"/><linearGradient id="_lgradient_3" x1="0" y1="0.5" x2="6.123233995736766e-17" y2="1.5" gradientTransform="matrix(20.078,0,0,47.141,110.619,0)" gradientUnits="userSpaceOnUse"><stop offset="0%" stop-opacity="1" style="stop-color:rgb(208,235,236)"/><stop offset="8%" stop-opacity="1" style="stop-color:rgb(124,203,203)"/><stop offset="100%" stop-opacity="1" style="stop-color:rgb(0,159,170)"/></linearGradient><path d=" M 126.267 0 L 130.697 16.313 L 110.619 47.141 L 121.935 16.28 L 126.267 0 Z " fill="url(#_lgradient_3)"/><linearGradient id="_lgradient_4" x1="0" y1="0.5" x2="6.123233995736766e-17" y2="1.5" gradientTransform="matrix(20.077,0,0,47.141,59.917,0)" gradientUnits="userSpaceOnUse"><stop offset="0%" stop-opacity="1" style="stop-color:rgb(208,235,236)"/><stop offset="8%" stop-opacity="1" style="stop-color:rgb(124,203,203)"/><stop offset="100%" stop-opacity="1" style="stop-color:rgb(0,159,170)"/></linearGradient><path d=" M 64.345 0 L 59.917 16.313 L 79.994 47.141 L 68.679 16.28 L 64.345 0 Z " fill="url(#_lgradient_4)"/><linearGradient id="_lgradient_5" x1="0" y1="0.5" x2="6.123233995736766e-17" y2="1.5" gradientTransform="matrix(20.078,0,0,30.829,110.619,16.313)" gradientUnits="userSpaceOnUse"><stop offset="0%" stop-opacity="1" style="stop-color:rgb(208,235,236)"/><stop offset="8%" stop-opacity="1" style="stop-color:rgb(208,235,236)"/><stop offset="100%" stop-opacity="1" style="stop-color:rgb(0,159,170)"/></linearGradient><path d=" M 110.619 47.141 L 130.697 16.313 L 121.922 16.313 L 110.619 47.141 Z " fill="url(#_lgradient_5)"/><linearGradient id="_lgradient_6" x1="0" y1="0.5" x2="6.123233995736766e-17" y2="1.5" gradientTransform="matrix(20.077,0,0,30.829,59.917,16.313)" gradientUnits="userSpaceOnUse"><stop offset="0%" stop-opacity="1" style="stop-color:rgb(208,235,236)"/><stop offset="8%" stop-opacity="1" style="stop-color:rgb(208,235,236)"/><stop offset="100%" stop-opacity="1" style="stop-color:rgb(0,159,170)"/></linearGradient><path d=" M 59.917 16.313 L 79.994 47.141 L 68.69 16.313 L 59.917 16.313 Z " fill="url(#_lgradient_6)"/></g><path d=" M 65.33 63.902 L 32.665 0.012 L 25.556 13.751 L 39.679 40.94 L 29.901 40.94 L 23.561 53.334 L 45.827 53.334 L 51.4 63.902 L 65.33 63.902 Z  M 30.623 31.451 L 23.61 17.712 L 0 63.902 L 13.931 63.902 L 30.623 31.451 Z " fill-rule="evenodd" fill="rgb(0,128,132)"/><path d=" M 210.169 63.902 L 210.169 0.012 L 179.906 27.009 L 149.547 0.012 L 149.547 16.633 L 179.906 43.63 L 197.776 27.586 L 197.776 63.902 L 210.169 63.902 Z  M 161.94 63.902 L 161.94 33.373 L 149.547 22.324 L 149.547 63.902 L 161.94 63.902 Z  M 270.504 13.847 L 270.504 1.357 L 241.608 1.357 L 241.608 13.847 L 270.504 13.847 Z  M 270.504 38.826 L 270.504 26.433 L 241.608 26.433 L 241.608 38.826 L 270.504 38.826 Z  M 270.504 63.902 L 270.504 51.508 L 241.608 51.508 L 241.608 63.902 L 270.504 63.902 Z  M 238.031 63.902 L 238.031 1.357 L 225.541 1.357 L 225.541 63.902 L 238.031 63.902 Z  M 333.989 47.835 L 309.51 0.012 L 302.4 13.751 L 319.866 47.835 L 333.989 47.835 Z  M 340.158 63.902 L 340.158 51.412 L 297.116 51.412 L 307.387 31.451 L 300.469 17.712 L 283.09 51.412 L 276.076 51.412 L 276.076 63.902 L 340.158 63.902 Z " fill-rule="evenodd" fill="rgb(0,128,132)"/><path d=" M 0.08 77.118 L 16.982 77.118 L 16.982 82.865 L 11.405 82.865 L 11.405 107.684 L 5.487 107.684 L 5.487 82.865 L 0.08 82.865 L 0.08 77.118 Z  M 35.352 76.351 C 39.673 76.351 43.391 77.919 46.498 81.048 C 49.613 84.177 51.167 87.995 51.167 92.493 C 51.167 96.956 49.635 100.731 46.562 103.818 C 43.497 106.904 39.772 108.451 35.394 108.451 C 30.804 108.451 26.993 106.861 23.963 103.69 C 20.927 100.518 19.408 96.75 19.408 92.387 C 19.408 89.471 20.118 86.782 21.53 84.326 C 22.942 81.879 24.886 79.934 27.355 78.501 C 29.831 77.068 32.499 76.351 35.352 76.351 Z  M 35.266 82.056 C 32.45 82.056 30.08 83.042 28.164 85.008 C 26.241 86.973 25.283 89.471 25.283 92.508 C 25.283 95.885 26.49 98.56 28.909 100.525 C 30.789 102.065 32.939 102.831 35.373 102.831 C 38.119 102.831 40.46 101.831 42.39 99.837 C 44.327 97.843 45.292 95.388 45.292 92.465 C 45.292 89.556 44.32 87.094 42.369 85.079 C 40.425 83.064 38.055 82.056 35.266 82.056 Z  M 56.652 77.118 L 62.832 77.118 C 66.174 77.118 68.579 77.423 70.055 78.04 C 71.531 78.657 72.702 79.658 73.553 81.034 C 74.405 82.411 74.83 84.064 74.83 85.994 C 74.83 88.13 74.27 89.904 73.149 91.315 C 72.035 92.727 70.516 93.714 68.593 94.267 C 67.465 94.586 65.415 94.743 62.442 94.743 L 62.442 107.685 L 56.652 107.685 L 56.652 77.118 Z  M 62.442 89.08 L 64.308 89.08 C 65.777 89.08 66.791 88.974 67.366 88.768 C 67.941 88.555 68.388 88.215 68.721 87.732 C 69.048 87.25 69.211 86.668 69.211 85.98 C 69.211 84.795 68.75 83.929 67.827 83.39 C 67.16 82.985 65.911 82.78 64.095 82.78 L 62.442 82.78 L 62.442 89.08 Z  M 80.492 77.118 L 95.691 77.118 L 95.691 82.822 L 86.282 82.822 L 86.282 107.684 L 80.492 107.684 L 80.492 77.118 Z  M 114.65 76.351 C 118.971 76.351 122.689 77.919 125.797 81.048 C 128.911 84.177 130.465 87.995 130.465 92.493 C 130.465 96.956 128.933 100.731 125.86 103.818 C 122.795 106.904 119.07 108.451 114.692 108.451 C 110.102 108.451 106.291 106.861 103.262 103.69 C 100.225 100.518 98.706 96.75 98.706 92.387 C 98.706 89.471 99.416 86.782 100.828 84.326 C 102.24 81.879 104.184 79.934 106.653 78.501 C 109.129 77.068 111.797 76.351 114.65 76.351 L 114.65 76.351 Z  M 114.565 82.056 C 111.748 82.056 109.378 83.042 107.462 85.008 C 105.539 86.973 104.581 89.471 104.581 92.508 C 104.581 95.885 105.788 98.56 108.207 100.525 C 110.087 102.065 112.237 102.831 114.671 102.831 C 117.417 102.831 119.758 101.831 121.688 99.837 C 123.625 97.843 124.59 95.388 124.59 92.465 C 124.59 89.556 123.618 87.094 121.667 85.079 C 119.723 83.064 117.353 82.056 114.565 82.056 Z  M 135.95 107.684 L 135.95 77.118 L 140.775 77.118 C 143.578 77.118 145.621 77.295 146.92 77.657 C 148.757 78.146 150.219 79.047 151.304 80.36 C 152.39 81.68 152.936 83.234 152.936 85.022 C 152.936 86.185 152.688 87.243 152.198 88.193 C 151.709 89.144 150.907 90.038 149.8 90.868 C 151.652 91.741 153.007 92.827 153.866 94.139 C 154.724 95.445 155.15 96.992 155.15 98.78 C 155.15 100.497 154.703 102.058 153.816 103.47 C 152.922 104.882 151.773 105.939 150.368 106.634 C 148.963 107.337 147.026 107.684 144.55 107.684 L 135.95 107.684 Z  M 141.74 82.652 L 141.74 89.123 L 143.038 89.123 C 144.486 89.123 145.564 88.825 146.267 88.222 C 146.969 87.626 147.317 86.81 147.317 85.781 C 147.317 84.823 146.983 84.064 146.316 83.496 C 145.649 82.936 144.635 82.652 143.272 82.652 L 141.74 82.652 Z  M 141.74 94.317 L 141.74 102.15 L 143.216 102.15 C 145.664 102.15 147.317 101.845 148.168 101.235 C 149.02 100.625 149.445 99.738 149.445 98.574 C 149.445 97.261 148.949 96.218 147.948 95.459 C 146.948 94.7 145.288 94.317 142.967 94.317 L 141.74 94.317 Z  M 183.972 77.118 L 189.761 77.118 L 189.761 107.685 L 183.972 107.685 L 183.972 77.118 Z  M 160.642 107.684 L 160.642 77.118 L 166.432 77.118 L 166.432 88.655 L 167.702 88.655 C 170.128 88.655 172.144 88.939 173.761 89.499 C 175.372 90.059 176.77 91.124 177.948 92.692 C 179.126 94.267 179.714 96.162 179.714 98.375 C 179.714 100.469 179.211 102.242 178.196 103.697 C 177.188 105.152 176.018 106.18 174.684 106.783 C 173.35 107.387 171.519 107.685 169.192 107.685 L 160.642 107.684 Z  M 166.432 93.848 L 166.432 102.15 L 167.886 102.15 C 170.306 102.15 171.916 101.852 172.74 101.256 C 173.556 100.66 173.967 99.638 173.967 98.198 C 173.967 95.296 171.86 93.848 167.638 93.848 L 166.432 93.848 Z  M 219.016 77.118 L 219.016 107.684 L 213.226 107.684 L 213.226 88.548 L 201.71 107.684 L 196.708 107.684 L 196.708 77.118 L 202.498 77.118 L 202.498 96.878 L 214.191 77.118 L 219.016 77.118 Z  M 199.518 68.901 L 204.115 68.901 C 204.477 69.469 204.974 69.894 205.62 70.178 C 206.258 70.462 207.046 70.604 207.968 70.604 C 208.905 70.604 209.756 70.441 210.515 70.107 C 211.012 69.887 211.445 69.483 211.821 68.901 L 216.419 68.901 C 216.156 70.661 215.312 72.073 213.893 73.137 C 212.474 74.201 210.494 74.733 207.947 74.733 C 206.23 74.733 204.797 74.492 203.64 74.017 C 202.483 73.541 201.554 72.86 200.844 71.973 C 200.142 71.086 199.695 70.065 199.518 68.901 L 199.518 68.901 Z  M 247.837 77.118 L 253.719 77.118 L 263.596 102.235 L 266.988 102.235 L 266.988 112.24 L 261.368 112.24 L 261.368 107.684 L 240.252 107.684 L 240.252 112.24 L 234.633 112.24 L 234.633 102.235 L 238.031 102.235 L 247.837 77.118 Z  M 250.831 85.157 L 244.119 102.235 L 257.544 102.235 L 250.831 85.157 Z  M 285.145 76.351 C 289.466 76.351 293.184 77.919 296.291 81.048 C 299.406 84.177 300.96 87.995 300.96 92.493 C 300.96 96.956 299.428 100.731 296.355 103.818 C 293.29 106.904 289.565 108.451 285.187 108.451 C 280.596 108.451 276.786 106.861 273.757 103.69 C 270.72 100.518 269.201 96.75 269.201 92.387 C 269.201 89.471 269.911 86.782 271.323 84.326 C 272.735 81.879 274.679 79.934 277.148 78.501 C 279.624 77.068 282.292 76.351 285.145 76.351 L 285.145 76.351 Z  M 285.06 82.056 C 282.243 82.056 279.873 83.042 277.957 85.008 C 276.034 86.973 275.076 89.471 275.076 92.508 C 275.076 95.885 276.282 98.56 278.702 100.525 C 280.582 102.065 282.732 102.831 285.166 102.831 C 287.912 102.831 290.253 101.831 292.183 99.837 C 294.12 97.843 295.085 95.388 295.085 92.465 C 295.085 89.556 294.113 87.094 292.162 85.079 C 290.218 83.064 287.848 82.056 285.06 82.056 Z  M 309.418 77.118 L 315.059 77.118 L 322.175 98.439 L 329.328 77.118 L 334.954 77.118 L 340.077 107.684 L 334.465 107.684 L 331.201 88.378 L 324.73 107.684 L 319.593 107.684 L 313.15 88.378 L 309.822 107.684 L 304.146 107.684 L 309.418 77.118 Z " fill-rule="evenodd" fill="rgb(0,128,132)"/></g></svg>