<?xml version="1.0" encoding="UTF-8" standalone="no"?><!-- Generator: Gravit.io --><svg xmlns="http://www.w3.org/2000/svg" xmlns:xlink="http://www.w3.org/1999/xlink" style="isolation:isolate" viewBox="0 0 86.798 63.902" width="86.798pt" height="63.902pt"><defs><clipPath id="_clipPath_WjAzC670O7oG7pv5IFMELvmZfnEZXsu3"><rect width="86.798" height="63.902"/></clipPath></defs><g clip-path="url(#_clipPath_WjAzC670O7oG7pv5IFMELvmZfnEZXsu3)"><g><linearGradient id="_lgradient_0" x1="0" y1="0.5" x2="-1.8369701987210297e-16" y2="1.5" gradientTransform="matrix(86.798,0,0,16.268,0,0)" gradientUnits="userSpaceOnUse"><stop offset="0%" stop-opacity="1" style="stop-color:rgb(208,235,236)"/><stop offset="8.000000000000014%" stop-opacity="1" style="stop-color:rgb(124,203,203)"/><stop offset="100%" stop-opacity="1" style="stop-color:rgb(0,159,170)"/></linearGradient><path d=" M 12.448 0 L 0 16.268 L 86.798 16.268 L 74.351 0 L 12.448 0 Z " fill="url(#_lgradient_0)"/><linearGradient id="_lgradient_1" x1="0" y1="0.5000000000000001" x2="1" y2="0.5000000000000001" gradientTransform="matrix(86.798,0,0,47.634,0,16.268)" gradientUnits="userSpaceOnUse"><stop offset="0%" stop-opacity="1" style="stop-color:rgb(124,203,203)"/><stop offset="8%" stop-opacity="1" style="stop-color:rgb(124,203,203)"/><stop offset="100%" stop-opacity="1" style="stop-color:rgb(0,159,170)"/></linearGradient><path d=" M 0 16.268 L 43.399 63.902 L 86.798 16.268 L 0 16.268 Z " fill="url(#_lgradient_1)"/><path d=" M 43.431 63.824 L 70.038 16.28 L 43.41 0.013 L 16.782 16.28 L 43.387 63.824 L 43.387 63.902 L 43.41 63.864 L 43.431 63.902 L 43.431 63.824 Z " fill-rule="evenodd" fill="rgb(0,128,132)"/><path d=" M 43.421 63.824 L 58.769 16.28 L 43.41 0.013 L 28.051 16.28 L 43.397 63.824 L 43.397 63.902 L 43.41 63.864 L 43.421 63.902 L 43.421 63.824 Z " fill="none"/><linearGradient id="_lgradient_2" x1="0" y1="0.5" x2="6.123233995736766e-17" y2="-0.5" gradientTransform="matrix(16.198,0,0,47.622,35.31,16.28)" gradientUnits="userSpaceOnUse"><stop offset="100%" stop-opacity="1" style="stop-color:rgb(208,235,236)"/><stop offset="100%" stop-opacity="1" style="stop-color:rgb(208,235,236)"/><stop offset="100%" stop-opacity="1" style="stop-color:rgb(0,159,170)"/></linearGradient><path d=" M 43.416 63.824 L 51.508 16.28 L 35.31 16.28 L 43.403 63.824 L 43.403 63.902 L 43.411 63.864 L 43.417 63.902 L 43.416 63.824 Z " fill="url(#_lgradient_2)"/><path d=" M 58.769 16.28 L 43.41 0.013 L 28.051 16.28 L 58.769 16.28 Z " fill="none"/><path d=" M 12.448 0 L 28.051 16.28 L 43.41 0.013 L 12.448 0 Z " fill="none"/><path d=" M 74.37 0 L 58.769 16.28 L 43.41 0.013 L 74.37 0 Z " fill="none"/><linearGradient id="_lgradient_3" x1="0" y1="0.49999999999999994" x2="-1.8369701987210297e-16" y2="1.5" gradientTransform="matrix(20.078,0,0,47.141,58.722,0)" gradientUnits="userSpaceOnUse"><stop offset="0%" stop-opacity="1" style="stop-color:rgb(208,235,236)"/><stop offset="8%" stop-opacity="1" style="stop-color:rgb(124,203,203)"/><stop offset="100%" stop-opacity="1" style="stop-color:rgb(0,159,170)"/></linearGradient><path d=" M 74.37 0 L 78.8 16.313 L 58.722 47.141 L 70.038 16.28 L 74.37 0 Z " fill="url(#_lgradient_3)"/><linearGradient id="_lgradient_4" x1="0" y1="0.5" x2="-1.8369701987210302e-16" y2="1.5000000000000002" gradientTransform="matrix(20.077,0,0,47.141,8.02,0)" gradientUnits="userSpaceOnUse"><stop offset="0%" stop-opacity="1" style="stop-color:rgb(208,235,236)"/><stop offset="8%" stop-opacity="1" style="stop-color:rgb(124,203,203)"/><stop offset="100%" stop-opacity="1" style="stop-color:rgb(0,159,170)"/></linearGradient><path d=" M 12.448 0 L 8.02 16.313 L 28.097 47.141 L 16.782 16.28 L 12.448 0 Z " fill="url(#_lgradient_4)"/><linearGradient id="_lgradient_5" x1="0" y1="0.5000162190216687" x2="-1.8370297864399449e-16" y2="1.500048657065006" gradientTransform="matrix(20.078,0,0,30.828,58.722,16.313)" gradientUnits="userSpaceOnUse"><stop offset="0%" stop-opacity="1" style="stop-color:rgb(208,235,236)"/><stop offset="8%" stop-opacity="1" style="stop-color:rgb(208,235,236)"/><stop offset="100%" stop-opacity="1" style="stop-color:rgb(0,159,170)"/></linearGradient><path d=" M 58.722 47.141 L 78.8 16.313 L 70.025 16.313 L 58.722 47.141 Z " fill="url(#_lgradient_5)"/><linearGradient id="_lgradient_6" x1="0" y1="0.5000162190216687" x2="-1.8370297864399449e-16" y2="1.500048657065006" gradientTransform="matrix(20.077,0,0,30.828,8.02,16.313)" gradientUnits="userSpaceOnUse"><stop offset="0%" stop-opacity="1" style="stop-color:rgb(208,235,236)"/><stop offset="8%" stop-opacity="1" style="stop-color:rgb(208,235,236)"/><stop offset="100%" stop-opacity="1" style="stop-color:rgb(0,159,170)"/></linearGradient><path d=" M 8.02 16.313 L 28.097 47.141 L 16.793 16.313 L 8.02 16.313 Z " fill="url(#_lgradient_6)"/></g></g></svg>