<?xml version="1.0" standalone="no"?>
<!DOCTYPE svg PUBLIC "-//W3C//DTD SVG 20010904//EN"
 "http://www.w3.org/TR/2001/REC-SVG-20010904/DTD/svg10.dtd">
<svg version="1.0" xmlns="http://www.w3.org/2000/svg"
 width="87.000000pt" height="87.000000pt" viewBox="0 0 87.000000 87.000000"
 preserveAspectRatio="xMidYMid meet">
<metadata>
Created by potrace 1.14, written by Peter Selinger 2001-2017
</metadata>
<g transform="translate(0.000000,87.000000) scale(0.100000,-0.100000)"
fill="#000000" stroke="none">
<path d="M68 686 c-32 -40 -58 -78 -60 -84 -3 -10 60 -83 262 -302 14 -15 56
-62 94 -104 l70 -77 35 39 c20 22 68 74 106 117 39 43 85 94 104 114 18 20 63
69 100 110 36 40 71 78 77 84 8 8 -5 34 -49 94 l-61 83 -311 0 -311 0 -56 -74z"/>
</g>
</svg>
