<?xml version="1.0" encoding="utf-8"?>
<!-- Generator: Adobe Illustrator 27.0.0, SVG Export Plug-In . SVG Version: 6.00 Build 0)  -->
<svg version="1.1" id="Слой_1" xmlns="http://www.w3.org/2000/svg" xmlns:xlink="http://www.w3.org/1999/xlink" x="0px" y="0px"
	 viewBox="0 0 890.1 320.8" style="enable-background:new 0 0 890.1 320.8;" xml:space="preserve">
<style type="text/css">
	.st0{fill:#00ACEC;}
	.st1{fill:#81848B;}
	.st2{fill-rule:evenodd;clip-rule:evenodd;fill:#81848B;}
	.st3{fill-rule:evenodd;clip-rule:evenodd;fill:#00ACEC;}
	.st4{fill:none;stroke:#81848B;stroke-width:2;}
</style>
<path class="st0" d="M145.5,270.9c-62.4,2-133.1,17.4-133.1,17.4s65.1-8.3,133.1-9.4c67.9-1.1,122.9,2.4,155.9,4.4l0.2,0
	c32.9,2.1,87,4.5,152.3,4.9c65.3,0.4,128-10,157.3-16.3c29.2-6.3,35.4-10.1,47.7-14.5c12.2-4.5,31.8-16.6,31.8-16.6
	s-21.8,10.3-60.1,18.5c-38.4,8.2-42.6,9.4-92.5,14.4s-169,1.2-169,1.2S207.9,268.9,145.5,270.9z"/>
<path class="st1" d="M359,102.5c-3.8,0-7.7-1-10-3.4c-2.2-2.2-4.3-5.2-4.3-9s1.3-6.4,3.9-9.1c2.3-2.3,7.4-3.1,11.2-3.1h15.7
	c0-1.7,0-12,0-13.7v-17c0.3-5.8,2.8-9.7,4.6-11.3c3.3-3,7-5.4,13.3-5.4c6.3,0,9.7,2.2,13,6.1c3,3.4,4.1,6.3,4.1,10.6v28.2
	c0,1.7,0.8,2.5,2.5,2.5h14.6c3.8,0,7.2,0.4,9.9,3.1c2.8,2.6,3.9,5.2,3.9,9c0,3.8-1,5.9-3.9,8.7c-2.6,2.6-6.1,3.7-9.9,3.7h-17.2
	c0,0.8,0,0.8,0,2.3v73.4c0,12.3,1.3,20.2,4,23.8c2.6,3.6,8.1,4.5,16.4,4.5c4.5,0,7.9-0.2,10.2-0.6c3.8-0.4,7.1,1.4,9.9,3.4
	c2.8,2.1,4.2,4.9,4.2,8.5c0,4.1-1.4,7.9-4.2,11.3c-2.6,3.2-5.9,5-9.9,5.4c-8.3,0.8-14.5,1.1-18.7,1.1c-18.3,0-28.8-5.8-36.2-13.5
	c-7.4-7.9-11.2-20.5-11.2-40.7v-76.6c0-1.5,0-1.4,0-2.3H359z"/>
<path class="st1" d="M482.9,234.5c-2.7,0-6.7-2.2-9.9-5.4c-3.2-3.2-4.8-7-4.8-11.3V98.1c0-4.3,1.6-8.1,4.8-11.3
	c3.2-3.2,6.1-5.7,10.5-5.7h5.7c4.3,0,7.4,2.5,10.7,5.7c3.2,3.2,4,6.7,4.3,11.8v2.8c0,0.2,1.2,0.5,1.8,0.4c0.4-0.1,0.9-0.2,0.9-0.4
	c5.5-7.5,10.7-12.1,19.6-16.8c8.9-4.9,18.2-4.7,28.7-2.2c3.9,0.9,8.5,3.2,11.7,6.3c2.7,2.6,6.2,5.8,6.9,12.3
	c0.5,3.9-1.4,10-4.3,12.9c-2.8,2.8-9.1,8.9-16.9,5.9c-23.5-9.1-47.9,10.8-47.9,32.8v64.9c0,4.3-1.6,8.1-4.8,11.3
	c-3.2,3.2-7.2,5.9-9.8,5.9H482.9z"/>
<path class="st1" d="M675.3,121c-5.5-7.9-16.9-14.3-30.1-14.3c-11.1,0-20.9,5.1-27.5,14.3c-7.5,10.5-9,20.1-9,37.1
	s4.6,27.7,10.1,35.6c6.9,6.6,15.3,13.3,26.4,13.3c11.1,0,23.5-5.6,29-13.3c5.7-7.9,11-18.7,11-35.6S680.9,128.8,675.3,121z
	 M699.7,212.9c-12.5,13.2-31.8,20.2-54.5,20.2c-22.6,0-42.5-9-52.9-20.2c-12.5-13.4-18.7-30.4-18.7-54.8s6.2-43.1,18.7-56.3
	c12.6-13.4,30.3-21.9,52.9-21.9c22.6,0,42,7.7,54.5,21c12.6,13.2,20.4,27.2,20.4,51.5C720.1,176.8,718.3,193.2,699.7,212.9z"/>
<path class="st1" d="M691.3,320.8c-7.9,0-12.8-4.2-15.3-10.6c-1.9-4.9,0.2-10,2.1-13.1l97-137.7c0.9-1.3,1.8-2.2,0.8-3.5l-35.7-48.3
	c-2.5-4.5-2.8-9.3-1.3-13.2c2.7-7.2,7-8.9,10.5-9.6c3.3-0.7,10.9-0.5,15.6,4.6c3.3,3.6,7.4,8.7,9.9,12.1l24.1,33
	c0,0.2,0.1,0.3,0.3,0.3c0.2,0,0.3-0.1,0.3-0.3l26.1-35.9c3.3-4.3,3.7-4.9,7-8.3c3.1-3.2,6.2-5.4,12.1-5.4c5.2,0,9.7,2.4,12.3,5.4
	c3.7,4.3,5.1,10.8,2.1,16.2l-35.9,49.1c-0.9,1.3,1.5,4.1,2.5,5.4l36.1,54c1.9,3,3,6.4,1.8,12c-1.1,5.6-8.1,9.9-11.7,10.2
	c-10,0.7-15.1-5.2-18.7-8.6c-3.6-3.4-10.5-13.5-12.7-17.9l-20.5-29.4c-0.4-0.2-1.4-0.1-1.4,0.1l-86.1,121.3c-2.8,3.7-4.5,5.7-8,10.6
	C700.8,318.3,697,320.8,691.3,320.8z"/>
<path class="st2" d="M269.3,233.7c-24.7,0-39.9-5.1-53.3-17.9c-13.2-13-22.6-33.4-22.6-58.5c0-24.9,9.3-43.9,21.2-56.9
	c11.9-13,30.6-20.2,53.1-19.4c39.2,1.2,53.7,20.3,61,33.7c5.9,10.9,8.1,23.4,4.8,36.2c-1.7,6.5-8.6,10-13.2,10h-87.9
	c0,1.4-0.4,5.5,0,7.2c1.3,12.6,6.1,24.1,13,29.9c7.2,5.7,18.9,8,32,6.3c12.5-2.8,17.3-14.2,26.5-18.6c3.9-1.9,12.3-1.6,15.4,0
	c4.6,2.4,8.1,5,9.4,10.2c2.7,10.5-5.7,16.4-11.8,21.7c-4,3.5-11,7.7-15.5,9.7C295.4,230,280.7,233.7,269.3,233.7z M246,115.5
	c6.2-4.4,11.2-6.7,20.9-6.7c10.1,0,18.3,5.2,22.3,11.2c6.4,9.8,5.7,22.2,5.7,22.2h-57.1h-5.3C233.8,130.3,239.7,119.9,246,115.5z"/>
<path class="st0" d="M740.3,320.7c-7.9,0-14.1-5.2-16.6-11.5c-1.9-4.9,0.8-12.5,2.7-15.6l73.1-102.1c1.3,1.6,17.8,24.8,18.7,26
	c3.1,4.5,1.3,7.2,0.5,8.9l-55.2,77.4c-2.8,3.7-4.9,5.6-8.5,10.5C751.2,319.3,746,320.7,740.3,320.7z"/>
<ellipse class="st1" cx="84" cy="227.7" rx="27.2" ry="27.2"/>
<path class="st3" d="M164.1,186.8c-5.3,16.8-15.7,31.5-29.8,42.1l-25.8-34.4c10-7.5,16.4-19.4,16.4-32.8c0-22.6-18.4-41-41-41
	c-22.6,0-41,18.4-41,41c0,13.3,6.4,25.2,16.2,32.7l-26,34.2c-14-10.6-24.4-25.4-29.5-42.3s-4.9-34.9,0.7-51.6s16.4-31.2,30.7-41.4
	C49.5,83,66.7,77.5,84.3,77.6c17.6,0.1,34.8,5.7,49,16c14.3,10.3,24.9,24.9,30.4,41.6C169.3,151.9,169.4,169.9,164.1,186.8z"/>
<path class="st3" d="M168,0l-52.1,0v135.9c5.7,7,9.1,16,9.1,25.7c0,1.7-0.1,3.3-0.3,4.9H168V0z"/>
<path class="st1" d="M874.1,64.6h-5v8.6h-2.8V51.9h7.1c2.4,0,4.2,0.5,5.5,1.6c1.3,1.1,1.9,2.7,1.9,4.8c0,1.3-0.4,2.5-1.1,3.5
	c-0.7,1-1.7,1.7-3,2.2l5,9.1v0.2h-3L874.1,64.6z M869,62.3h4.3c1.4,0,2.5-0.4,3.3-1.1c0.8-0.7,1.2-1.7,1.2-2.9c0-1.3-0.4-2.3-1.2-3
	c-0.8-0.7-1.9-1.1-3.4-1.1H869V62.3z"/>
<circle class="st4" cx="873" cy="62.1" r="19"/>
</svg>
