<?xml version="1.0" encoding="UTF-8"?>
<svg xmlns="http://www.w3.org/2000/svg" xmlns:xlink="http://www.w3.org/1999/xlink" width="360px" height="98px" viewBox="0 0 360 98" version="1.1">
<g id="surface1">
<path style=" stroke:none;fill-rule:nonzero;fill:rgb(76.470588%,83.137255%,91.372549%);fill-opacity:1;" d="M 34.316406 7.132812 C -6.632812 13.949219 -2.253906 67.269531 40.167969 67.804688 C 81.882812 68.335938 93.171875 17.621094 102.148438 0.320312 C 96.714844 4.527344 72.78125 57.023438 41.347656 58.558594 C 23.035156 58.796875 16.238281 48.070312 15.824219 38.117188 C 15.53125 23.785156 27.9375 14.953125 39.871094 17.148438 C 12.160156 19.21875 17.421875 54.652344 41.230469 51.628906 C 63.269531 49.96875 90.15625 12.226562 93.289062 6.660156 C 72.898438 27.039062 53.222656 4.40625 34.316406 7.132812 "/>
<path style=" stroke:none;fill-rule:nonzero;fill:rgb(100%,100%,100%);fill-opacity:1;" d="M 46.664062 30.714844 C 46.253906 29.644531 45.601562 28.644531 44.773438 27.871094 C 43.949219 27.039062 42.886719 26.390625 41.53125 25.976562 C 40.285156 25.558594 39.105469 25.441406 37.570312 25.265625 C 37.453125 25.265625 37.453125 25.265625 37.269531 25.265625 L 28.175781 25.265625 L 28.175781 43.273438 L 36.917969 43.273438 C 37.035156 43.273438 37.332031 43.273438 37.625 43.273438 C 38.867188 43.273438 40.050781 42.976562 41.175781 42.738281 C 42.414062 42.328125 43.59375 41.792969 44.421875 41.085938 C 45.367188 40.25 46.074219 39.304688 46.492188 38.0625 C 46.902344 36.992188 47.199219 35.746094 47.199219 34.265625 C 47.378906 33.203125 47.082031 31.839844 46.664062 30.714844 M 39.632812 36.164062 C 39.515625 36.582031 39.339844 36.875 39.105469 36.992188 C 38.988281 37.289062 38.570312 37.410156 38.277344 37.527344 C 38.160156 37.527344 37.980469 37.644531 37.742188 37.644531 C 37.453125 37.761719 37.035156 37.761719 36.679688 37.761719 L 35.617188 37.761719 L 35.617188 31.132812 L 36.859375 31.132812 C 37.152344 31.132812 37.390625 31.132812 37.6875 31.25 C 37.980469 31.25 38.097656 31.367188 38.214844 31.367188 C 38.515625 31.484375 38.75 31.660156 39.042969 31.898438 C 39.339844 32.195312 39.460938 32.433594 39.578125 32.847656 C 39.695312 33.257812 39.871094 33.792969 39.871094 34.503906 C 39.75 35.21875 39.75 35.628906 39.632812 36.164062 "/>
<path style=" stroke:none;fill-rule:nonzero;fill:rgb(88.235294%,11.764706%,56.862745%);fill-opacity:1;" d="M 43.710938 28.816406 C 42.355469 27.574219 40.460938 26.746094 37.742188 26.746094 C 37.625 26.746094 37.625 26.746094 37.453125 26.746094 L 29.949219 26.746094 L 29.949219 42.03125 L 37.035156 42.03125 C 37.152344 42.03125 37.453125 42.03125 37.742188 42.03125 C 40.34375 41.914062 42.238281 41.203125 43.59375 40.132812 C 45.074219 38.890625 45.78125 36.875 45.78125 34.386719 C 45.71875 32.078125 45.074219 30.359375 43.710938 28.816406 M 40.167969 37.945312 C 39.460938 38.476562 38.808594 38.890625 37.742188 39.007812 C 37.453125 39.007812 36.917969 39.125 36.679688 39.125 L 34.082031 39.125 L 34.082031 29.765625 L 36.917969 29.765625 C 37.214844 29.765625 37.453125 29.765625 37.742188 29.765625 C 38.808594 29.886719 39.632812 30.296875 40.34375 31.007812 C 41.175781 31.839844 41.410156 32.90625 41.410156 34.566406 C 41.347656 36.046875 40.996094 37.171875 40.167969 37.945312 "/>
<path style=" stroke:none;fill-rule:nonzero;fill:rgb(100%,100%,100%);fill-opacity:1;" d="M 37.269531 36.460938 L 37.269531 47.898438 L 43.121094 47.898438 L 43.121094 44.933594 L 44.894531 47.242188 L 45.308594 47.898438 L 50.332031 47.898438 L 50.332031 35.101562 L 44.65625 35.101562 L 44.65625 38.117188 L 42.886719 35.628906 L 42.472656 35.101562 L 37.269531 35.101562 Z M 37.269531 36.460938 "/>
<path style=" stroke:none;fill-rule:nonzero;fill:rgb(0%,7.843137%,53.72549%);fill-opacity:1;" d="M 46.253906 36.460938 L 46.253906 42.738281 L 46.136719 42.621094 L 41.648438 36.460938 L 38.925781 36.460938 L 38.925781 46.535156 L 41.648438 46.535156 L 41.648438 40.132812 L 46.136719 46.535156 L 48.851562 46.535156 L 48.851562 36.460938 Z M 46.253906 36.460938 "/>
<path style=" stroke:none;fill-rule:nonzero;fill:rgb(0%,7.843137%,53.72549%);fill-opacity:1;" d="M 233.796875 58.796875 C 237.757812 54.589844 239.765625 49.558594 239.765625 43.394531 C 239.765625 37.109375 237.582031 31.660156 233.386719 27.273438 C 229.015625 22.777344 223.757812 20.464844 217.316406 20.464844 C 210.933594 20.464844 205.734375 22.660156 201.832031 26.984375 C 197.875 31.367188 195.863281 36.402344 195.6875 42.503906 L 205.617188 42.503906 C 205.617188 41.140625 205.617188 40.3125 206.027344 38.714844 L 206.144531 38.417969 C 206.972656 35.808594 208.332031 33.792969 210.339844 32.25 C 212.410156 30.769531 214.710938 29.945312 217.433594 29.945312 C 220.152344 29.945312 222.574219 30.769531 224.757812 32.25 C 226.648438 33.496094 228.007812 35.394531 228.835938 37.410156 C 229.664062 39.070312 229.898438 40.84375 229.898438 42.738281 C 229.898438 44.933594 229.371094 46.945312 228.539062 48.722656 C 227.476562 51.449219 224.464844 54.171875 222.394531 54.886719 L 207.328125 54.886719 L 207.328125 63.890625 L 207.445312 63.890625 C 209.339844 63.890625 211.40625 63.890625 213.292969 63.890625 L 218.617188 63.890625 C 219.972656 63.890625 221.332031 64.1875 222.574219 64.722656 C 223.8125 65.253906 224.875 65.96875 225.820312 66.914062 C 226.765625 67.859375 227.476562 68.984375 228.007812 70.171875 C 232.207031 80.125 220.386719 93.753906 211.820312 97.84375 L 227.0625 97.960938 C 231.851562 96.300781 239.058594 85.574219 240.417969 78.347656 C 240.710938 76.984375 240.828125 75.503906 240.828125 73.960938 C 240.828125 70.707031 240.121094 67.683594 238.765625 64.839844 C 237.285156 62.882812 235.691406 60.753906 233.796875 58.796875 "/>
<path style=" stroke:none;fill-rule:nonzero;fill:rgb(0%,7.843137%,53.72549%);fill-opacity:1;" d="M 126.613281 55.714844 L 101.085938 55.714844 C 106.9375 43.039062 111.015625 31.304688 113.851562 20.9375 C 114.796875 17.503906 115.738281 14.242188 116.449219 11.101562 L 126.675781 11.101562 Z M 138.195312 0.0859375 L 107.707031 0.0859375 C 103.332031 19.457031 97.125 42.503906 86.199219 55.597656 L 78.984375 55.597656 L 78.984375 72.246094 L 89.859375 72.246094 L 89.859375 66.496094 L 136.242188 66.496094 L 136.242188 72.246094 L 147.117188 72.246094 L 147.117188 55.714844 L 138.195312 55.714844 Z M 138.195312 0.0859375 "/>
<path style=" stroke:none;fill-rule:nonzero;fill:rgb(0%,7.843137%,53.72549%);fill-opacity:1;" d="M 158.699219 38.652344 C 159.523438 36.046875 160.886719 34.03125 163.070312 32.492188 C 165.140625 31.007812 167.445312 30.296875 170.160156 30.179688 C 170.28125 30.179688 170.460938 30.179688 170.460938 30.179688 C 173.175781 30.179688 175.476562 31.007812 177.546875 32.492188 C 179.617188 33.976562 181.089844 36.164062 181.742188 38.652344 M 170.398438 20.644531 L 170.101562 20.644531 C 163.839844 20.761719 158.523438 22.953125 154.445312 27.457031 C 150.25 31.960938 148.0625 37.289062 148.0625 43.691406 C 148.0625 50.085938 150.25 55.300781 154.445312 59.511719 C 158.640625 63.714844 163.957031 65.90625 170.21875 65.90625 L 170.34375 65.90625 C 174.949219 65.90625 179.203125 64.660156 182.6875 62.234375 C 186.351562 59.804688 188.949219 56.488281 190.84375 52.28125 L 179.4375 52.28125 C 178.375 53.527344 177.136719 54.589844 175.476562 55.300781 C 174.003906 56.015625 172.230469 56.25 170.34375 56.25 L 170.21875 56.25 C 167.5 56.25 165.082031 55.417969 163.011719 53.9375 C 160.941406 52.457031 159.761719 50.386719 159.050781 47.777344 L 192.082031 47.777344 C 192.082031 47.070312 192.199219 46.535156 192.199219 45.882812 C 192.199219 45.226562 192.320312 44.402344 192.320312 43.273438 C 192.320312 36.875 190.136719 31.542969 186.175781 27.15625 C 181.980469 22.714844 176.78125 20.644531 170.398438 20.644531 "/>
<path style=" stroke:none;fill-rule:nonzero;fill:rgb(0%,7.843137%,53.72549%);fill-opacity:1;" d="M 318.769531 27.335938 C 314.398438 23.132812 308.957031 21.054688 302.460938 21.054688 C 297.140625 21.054688 292.535156 22.417969 288.753906 25.265625 C 285.085938 27.992188 282.488281 31.777344 281.132812 36.460938 L 292.535156 36.460938 C 293.480469 34.566406 294.722656 33.023438 296.613281 32.078125 C 298.5 31.132812 300.390625 30.597656 302.578125 30.597656 C 305.707031 30.597656 308.3125 31.425781 310.203125 32.90625 C 312.382812 34.566406 313.746094 36.460938 314.574219 39.070312 L 297.023438 39.070312 L 297.023438 48.070312 L 314.453125 48.070312 C 313.628906 50.675781 312.148438 52.691406 310.082031 54.234375 C 307.894531 55.894531 305.296875 56.542969 302.34375 56.542969 C 300.039062 56.542969 297.96875 56.132812 296.375 55.300781 C 294.777344 54.472656 293.359375 52.992188 292.414062 51.09375 L 281.015625 51.09375 C 282.667969 55.714844 285.203125 59.390625 288.871094 62.117188 C 292.535156 64.722656 296.90625 66.203125 301.925781 66.203125 C 308.429688 66.203125 313.925781 64.007812 318.53125 59.804688 C 321.785156 56.78125 323.671875 53.109375 324.675781 48.90625 C 325.089844 47.242188 325.210938 45.226562 325.210938 43.332031 C 325.210938 41.4375 324.910156 39.660156 324.675781 38 C 323.671875 33.738281 321.722656 30.359375 318.769531 27.335938 "/>
<path style=" stroke:none;fill-rule:nonzero;fill:rgb(0%,7.843137%,53.72549%);fill-opacity:1;" d="M 324.085938 31.425781 L 334.128906 31.425781 L 334.128906 64.660156 L 344.296875 64.660156 L 344.296875 31.425781 L 354.398438 31.425781 L 354.398438 22.296875 L 324.085938 22.296875 Z M 324.085938 31.425781 "/>
<path style=" stroke:none;fill-rule:nonzero;fill:rgb(0%,7.843137%,53.72549%);fill-opacity:1;" d="M 268.722656 37.945312 L 253.0625 37.945312 L 253.0625 22.296875 L 242.898438 22.296875 L 242.898438 64.660156 L 253.0625 64.660156 L 253.0625 46.945312 L 268.722656 46.945312 L 268.722656 64.660156 L 278.765625 64.660156 L 278.765625 22.296875 L 268.722656 22.296875 Z M 268.722656 37.945312 "/>
<path style=" stroke:none;fill-rule:nonzero;fill:rgb(5.098039%,5.882353%,5.882353%);fill-opacity:1;" d="M 5.601562 77.9375 L 7.667969 77.9375 L 7.667969 82.023438 L 11.214844 82.023438 L 11.214844 77.9375 L 13.28125 77.9375 L 13.28125 88.71875 L 11.214844 88.71875 L 11.214844 83.921875 L 7.667969 83.921875 L 7.667969 88.71875 L 5.601562 88.71875 Z M 5.601562 77.9375 "/>
<path style=" stroke:none;fill-rule:nonzero;fill:rgb(5.098039%,5.882353%,5.882353%);fill-opacity:1;" d="M 20.964844 77.636719 C 22.445312 77.636719 23.800781 78.171875 24.925781 79.296875 C 25.988281 80.363281 26.578125 81.726562 26.578125 83.386719 C 26.578125 85.039062 26.042969 86.226562 24.925781 87.355469 C 23.859375 88.417969 22.5 89.015625 20.964844 89.015625 C 19.3125 89.015625 17.949219 88.480469 16.886719 87.355469 C 15.824219 86.285156 15.234375 84.921875 15.234375 83.386719 C 15.234375 82.316406 15.53125 81.308594 15.941406 80.542969 C 16.476562 79.710938 17.183594 79.0625 18.011719 78.464844 C 19.074219 77.9375 20.019531 77.636719 20.964844 77.636719 Z M 20.964844 79.535156 C 20.019531 79.535156 19.191406 79.945312 18.539062 80.597656 C 17.832031 81.308594 17.59375 82.257812 17.59375 83.207031 C 17.59375 84.449219 18.011719 85.402344 18.839844 86.046875 C 19.546875 86.582031 20.195312 86.882812 21.140625 86.882812 C 22.089844 86.882812 22.917969 86.464844 23.5625 85.8125 C 24.214844 85.164062 24.625 84.15625 24.625 83.207031 C 24.625 82.140625 24.214844 81.308594 23.5625 80.597656 C 22.734375 79.945312 21.910156 79.535156 20.964844 79.535156 Z M 20.964844 79.535156 "/>
<path style=" stroke:none;fill-rule:nonzero;fill:rgb(5.098039%,5.882353%,5.882353%);fill-opacity:1;" d="M 28.585938 88.65625 L 28.585938 77.875 L 30.238281 77.875 C 31.183594 77.875 31.894531 77.875 32.429688 77.992188 C 33.136719 78.109375 33.492188 78.527344 33.902344 78.9375 C 34.316406 79.355469 34.4375 79.890625 34.4375 80.597656 C 34.4375 81.015625 34.316406 81.425781 34.144531 81.667969 C 34.019531 81.960938 33.726562 82.378906 33.3125 82.613281 C 34.019531 82.914062 34.378906 83.324219 34.789062 83.679688 C 35.089844 84.09375 35.207031 84.628906 35.207031 85.339844 C 35.207031 85.875 35.089844 86.410156 34.789062 87 C 34.5 87.589844 34.082031 87.828125 33.546875 88.0625 C 33.019531 88.363281 32.308594 88.480469 31.484375 88.480469 L 28.46875 88.480469 L 28.46875 88.65625 Z M 30.65625 79.828125 L 30.65625 82.140625 L 31.066406 82.140625 C 31.601562 82.140625 31.894531 82.023438 32.128906 81.84375 C 32.429688 81.550781 32.546875 81.308594 32.546875 81.015625 C 32.546875 80.71875 32.429688 80.480469 32.128906 80.183594 C 31.835938 80.0625 31.601562 79.890625 31.066406 79.890625 Z M 30.65625 83.921875 L 30.65625 86.644531 L 31.183594 86.644531 C 32.011719 86.644531 32.546875 86.527344 32.957031 86.347656 C 33.253906 86.046875 33.375 85.8125 33.375 85.402344 C 33.375 84.984375 33.253906 84.566406 32.839844 84.332031 C 32.429688 84.039062 31.894531 83.921875 31.066406 83.921875 Z M 30.65625 83.921875 "/>
<path style=" stroke:none;fill-rule:nonzero;fill:rgb(5.098039%,5.882353%,5.882353%);fill-opacity:1;" d="M 40.703125 77.9375 L 42.765625 77.9375 L 46.84375 88.71875 L 44.65625 88.71875 L 43.949219 86.410156 L 39.578125 86.410156 L 38.75 88.597656 L 36.5625 88.597656 Z M 41.765625 80.777344 L 40.285156 84.449219 L 43.121094 84.449219 Z M 41.765625 80.777344 "/>
<path style=" stroke:none;fill-rule:nonzero;fill:rgb(5.098039%,5.882353%,5.882353%);fill-opacity:1;" d="M 55 77.9375 L 55 88.71875 L 52.929688 88.71875 L 52.929688 84.332031 L 52.398438 84.332031 L 50.214844 88.71875 L 48.027344 88.71875 L 50.449219 84.09375 C 49.089844 83.679688 48.261719 82.734375 48.261719 81.25 C 48.261719 80.71875 48.378906 80.304688 48.5625 79.890625 C 48.679688 79.472656 48.972656 79.179688 49.269531 78.9375 C 49.5625 78.644531 49.796875 78.527344 50.214844 78.410156 C 50.625 78.289062 50.921875 78.289062 51.042969 78.109375 C 51.332031 78.109375 51.867188 78.109375 52.8125 77.992188 Z M 52.929688 82.257812 L 52.929688 79.828125 L 52.398438 79.828125 C 51.867188 79.828125 51.570312 79.828125 51.332031 79.945312 C 51.042969 79.945312 50.921875 80.0625 50.804688 80.363281 C 50.6875 80.660156 50.507812 80.777344 50.507812 81.191406 C 50.507812 81.605469 50.625 82.023438 50.921875 82.140625 C 51.214844 82.257812 51.632812 82.433594 52.277344 82.433594 L 52.988281 82.433594 Z M 52.929688 82.257812 "/>
<path style=" stroke:none;fill-rule:nonzero;fill:rgb(5.098039%,5.882353%,5.882353%);fill-opacity:1;" d="M 67.230469 77.9375 L 67.230469 79.296875 L 67.644531 79.296875 C 70.246094 79.296875 71.425781 80.363281 71.425781 82.433594 C 71.425781 82.96875 71.308594 83.503906 71.128906 83.921875 C 71.011719 84.332031 70.597656 84.746094 70.183594 84.984375 C 69.773438 85.28125 69.355469 85.402344 68.945312 85.519531 C 68.53125 85.636719 67.882812 85.636719 67.054688 85.636719 L 67.054688 88.480469 L 64.984375 88.480469 L 64.984375 85.636719 C 64.039062 85.636719 63.332031 85.519531 62.796875 85.339844 C 62.269531 85.222656 61.734375 84.804688 61.441406 84.273438 C 61.027344 83.742188 60.90625 83.207031 60.90625 82.378906 C 60.90625 81.667969 61.027344 81.015625 61.324219 80.597656 C 61.617188 80.183594 62.03125 79.769531 62.5625 79.535156 C 63.09375 79.238281 63.921875 79.117188 64.984375 79.117188 L 64.984375 77.757812 L 67.171875 77.757812 Z M 65.160156 81.191406 L 64.75 81.191406 C 64.039062 81.191406 63.507812 81.308594 63.269531 81.605469 C 63.035156 81.90625 62.859375 82.023438 62.859375 82.550781 C 62.859375 83.085938 62.976562 83.386719 63.269531 83.621094 C 63.566406 83.742188 63.980469 83.921875 64.511719 83.921875 L 65.042969 83.921875 L 65.042969 81.191406 Z M 67.230469 81.191406 L 67.230469 83.921875 L 67.9375 83.921875 C 68.648438 83.921875 69 83.796875 69.300781 83.503906 C 69.59375 83.207031 69.59375 82.96875 69.59375 82.550781 C 69.59375 82.140625 69.472656 81.726562 69.183594 81.605469 C 68.882812 81.308594 68.472656 81.191406 67.820312 81.191406 Z M 67.230469 81.191406 "/>
<path style=" stroke:none;fill-rule:nonzero;fill:rgb(5.098039%,5.882353%,5.882353%);fill-opacity:1;" d="M 78.339844 77.636719 C 79.820312 77.636719 81.175781 78.171875 82.300781 79.296875 C 83.363281 80.363281 83.953125 81.726562 83.953125 83.386719 C 83.953125 85.039062 83.417969 86.226562 82.300781 87.355469 C 81.234375 88.417969 79.875 89.015625 78.339844 89.015625 C 76.6875 89.015625 75.324219 88.480469 74.261719 87.355469 C 73.199219 86.285156 72.609375 84.921875 72.609375 83.386719 C 72.609375 82.316406 72.898438 81.308594 73.316406 80.542969 C 73.851562 79.710938 74.558594 79.0625 75.386719 78.464844 C 76.449219 77.9375 77.394531 77.636719 78.339844 77.636719 Z M 78.339844 79.535156 C 77.394531 79.535156 76.566406 79.945312 75.914062 80.597656 C 75.207031 81.308594 74.96875 82.257812 74.96875 83.207031 C 74.96875 84.449219 75.386719 85.402344 76.214844 86.046875 C 76.921875 86.582031 77.570312 86.882812 78.515625 86.882812 C 79.457031 86.882812 80.292969 86.464844 80.9375 85.8125 C 81.648438 85.101562 82 84.15625 82 83.207031 C 82 82.140625 81.589844 81.308594 80.9375 80.597656 C 80.109375 79.945312 79.285156 79.535156 78.339844 79.535156 Z M 78.339844 79.535156 "/>
<path style=" stroke:none;fill-rule:nonzero;fill:rgb(5.098039%,5.882353%,5.882353%);fill-opacity:1;" d="M 85.960938 77.9375 L 88.148438 77.9375 C 89.386719 77.9375 90.214844 78.054688 90.75 78.230469 C 91.277344 78.527344 91.691406 78.765625 91.984375 79.296875 C 92.285156 79.828125 92.402344 80.363281 92.402344 81.070312 C 92.402344 81.90625 92.285156 82.433594 91.867188 82.96875 C 91.457031 83.503906 90.921875 83.796875 90.214844 84.039062 C 89.804688 84.15625 89.152344 84.15625 88.03125 84.15625 L 88.03125 88.65625 L 85.960938 88.65625 Z M 88.03125 82.140625 L 88.738281 82.140625 C 89.269531 82.140625 89.566406 82.140625 89.804688 82.023438 C 90.09375 81.90625 90.214844 81.90625 90.214844 81.605469 C 90.332031 81.488281 90.332031 81.191406 90.332031 80.898438 C 90.332031 80.480469 90.214844 80.183594 89.804688 79.945312 C 89.503906 79.828125 89.09375 79.652344 88.441406 79.652344 L 87.914062 79.652344 L 87.914062 82.078125 Z M 88.03125 82.140625 "/>
<path style=" stroke:none;fill-rule:nonzero;fill:rgb(5.098039%,5.882353%,5.882353%);fill-opacity:1;" d="M 95.472656 77.9375 L 97.542969 77.9375 L 99.96875 85.457031 L 102.386719 77.9375 L 104.457031 77.9375 L 106.226562 88.71875 L 104.15625 88.71875 L 103.09375 81.90625 L 100.792969 88.71875 L 99.023438 88.71875 L 96.714844 81.90625 L 95.472656 88.71875 L 93.410156 88.71875 Z M 95.472656 77.9375 "/>
<path style=" stroke:none;fill-rule:nonzero;fill:rgb(5.098039%,5.882353%,5.882353%);fill-opacity:1;" d="M 111.132812 86.226562 L 107.351562 77.9375 L 109.652344 77.9375 L 112.257812 83.921875 L 114.324219 77.9375 L 116.390625 77.9375 L 113.558594 85.695312 C 113.023438 87.054688 112.496094 87.890625 111.898438 88.300781 C 111.371094 88.71875 110.660156 89.015625 110.007812 89.015625 C 108.945312 89.015625 107.945312 88.480469 107 87.527344 L 108.355469 86.167969 C 108.890625 86.882812 109.417969 87.117188 110.007812 87.117188 C 110.304688 87.117188 110.425781 87.117188 110.542969 87 C 110.597656 86.761719 110.835938 86.347656 111.132812 86.226562 Z M 111.132812 86.226562 "/>
<path style=" stroke:none;fill-rule:nonzero;fill:rgb(5.098039%,5.882353%,5.882353%);fill-opacity:1;" d="M 124.722656 88.65625 L 121.707031 80.777344 L 118.699219 88.65625 L 116.511719 88.65625 L 120.589844 77.875 L 122.652344 77.875 L 126.730469 88.65625 Z M 124.722656 88.65625 "/>
<path style=" stroke:none;fill-rule:nonzero;fill:rgb(5.098039%,5.882353%,5.882353%);fill-opacity:1;" d="M 131.636719 77.9375 L 133.707031 77.9375 L 137.777344 88.71875 L 135.597656 88.71875 L 134.769531 86.527344 L 130.394531 86.527344 L 129.566406 88.71875 L 127.382812 88.71875 Z M 132.644531 80.777344 L 131.164062 84.449219 L 134 84.449219 Z M 132.644531 80.777344 "/>
<path style=" stroke:none;fill-rule:nonzero;fill:rgb(5.098039%,5.882353%,5.882353%);fill-opacity:1;" d="M 148.535156 83.921875 L 147.824219 83.921875 C 146.878906 83.921875 146.054688 83.921875 145.640625 83.796875 C 145.226562 83.679688 144.699219 83.503906 144.28125 83.085938 C 143.863281 82.792969 143.574219 82.378906 143.335938 81.84375 C 143.039062 81.308594 143.039062 80.777344 143.039062 79.945312 L 143.039062 77.757812 L 145.109375 77.757812 L 145.109375 79.828125 C 145.109375 80.542969 145.226562 81.070312 145.523438 81.308594 C 145.816406 81.605469 146.351562 81.726562 147.179688 81.726562 L 148.414062 81.726562 L 148.414062 77.636719 L 150.484375 77.636719 L 150.484375 88.417969 L 148.59375 88.417969 L 148.59375 83.921875 Z M 148.535156 83.921875 "/>
<path style=" stroke:none;fill-rule:nonzero;fill:rgb(5.098039%,5.882353%,5.882353%);fill-opacity:1;" d="M 161.003906 77.9375 L 161.003906 88.71875 L 158.933594 88.71875 L 158.933594 82.023438 L 154.972656 88.71875 L 153.203125 88.71875 L 153.203125 77.9375 L 155.273438 77.9375 L 155.273438 84.867188 L 159.351562 77.9375 Z M 161.003906 77.9375 "/>
<path style=" stroke:none;fill-rule:nonzero;fill:rgb(5.098039%,5.882353%,5.882353%);fill-opacity:1;" d="M 173.53125 79.828125 L 172.050781 81.191406 C 171.105469 80.125 169.980469 79.710938 168.800781 79.710938 C 167.738281 79.710938 166.910156 80.125 166.203125 80.777344 C 165.492188 81.488281 165.140625 82.433594 165.140625 83.386719 C 165.140625 84.09375 165.257812 84.746094 165.554688 85.28125 C 165.847656 85.8125 166.382812 86.226562 166.910156 86.644531 C 167.445312 86.9375 168.152344 87.054688 168.800781 87.054688 C 169.335938 87.054688 169.863281 86.9375 170.460938 86.761719 C 170.988281 86.464844 171.523438 86.046875 172.113281 85.519531 L 173.46875 87 C 172.640625 87.828125 171.996094 88.363281 171.167969 88.65625 C 170.460938 88.953125 169.6875 89.070312 168.746094 89.070312 C 167.089844 89.070312 165.730469 88.535156 164.667969 87.410156 C 163.601562 86.347656 163.011719 84.984375 163.011719 83.324219 C 163.011719 82.257812 163.304688 81.25 163.722656 80.480469 C 164.253906 79.652344 164.964844 79 165.792969 78.410156 C 166.734375 77.875 167.679688 77.574219 168.625 77.574219 C 169.570312 77.574219 170.398438 77.695312 171.226562 78.109375 C 171.933594 78.582031 172.878906 79 173.53125 79.828125 Z M 173.53125 79.828125 "/>
<path style=" stroke:none;fill-rule:nonzero;fill:rgb(5.098039%,5.882353%,5.882353%);fill-opacity:1;" d="M 174.359375 77.9375 L 180.328125 77.9375 L 180.328125 80.007812 L 178.4375 80.007812 L 178.4375 88.71875 L 176.367188 88.71875 L 176.367188 80.007812 L 174.296875 80.007812 L 174.296875 77.9375 Z M 174.359375 77.9375 "/>
<path style=" stroke:none;fill-rule:nonzero;fill:rgb(5.098039%,5.882353%,5.882353%);fill-opacity:1;" d="M 186.886719 77.636719 C 188.359375 77.636719 189.71875 78.171875 190.84375 79.296875 C 191.90625 80.363281 192.5 81.726562 192.5 83.386719 C 192.5 85.039062 191.964844 86.226562 190.84375 87.355469 C 189.71875 88.480469 188.421875 89.015625 186.886719 89.015625 C 185.230469 89.015625 183.871094 88.480469 182.808594 87.355469 C 181.742188 86.285156 181.152344 84.921875 181.152344 83.386719 C 181.152344 82.316406 181.445312 81.308594 181.863281 80.542969 C 182.273438 79.710938 183.097656 79.0625 183.933594 78.464844 C 184.933594 77.9375 185.941406 77.636719 186.886719 77.636719 Z M 186.886719 79.535156 C 185.941406 79.535156 185.113281 79.945312 184.460938 80.597656 C 183.75 81.308594 183.515625 82.257812 183.515625 83.207031 C 183.515625 84.449219 183.933594 85.402344 184.757812 86.046875 C 185.46875 86.582031 186.113281 86.882812 187.058594 86.882812 C 188.003906 86.882812 188.832031 86.464844 189.484375 85.8125 C 190.191406 85.101562 190.546875 84.15625 190.546875 83.207031 C 190.546875 82.140625 190.136719 81.308594 189.484375 80.597656 C 188.65625 79.945312 187.828125 79.535156 186.886719 79.535156 Z M 186.886719 79.535156 "/>
<path style=" stroke:none;fill-rule:nonzero;fill:rgb(5.098039%,5.882353%,5.882353%);fill-opacity:1;" d="M 193.382812 77.9375 L 199.351562 77.9375 L 199.351562 80.007812 L 197.460938 80.007812 L 197.460938 88.71875 L 195.390625 88.71875 L 195.390625 80.007812 L 193.324219 80.007812 L 193.324219 77.9375 Z M 193.382812 77.9375 "/>
<path style=" stroke:none;fill-rule:nonzero;fill:rgb(5.098039%,5.882353%,5.882353%);fill-opacity:1;" d="M 200.886719 88.65625 L 200.886719 77.875 L 202.957031 77.875 L 202.957031 81.960938 L 203.371094 81.960938 C 204.199219 81.960938 204.84375 82.078125 205.554688 82.257812 C 206.089844 82.378906 206.617188 82.792969 207.035156 83.324219 C 207.445312 83.859375 207.742188 84.566406 207.742188 85.402344 C 207.742188 86.109375 207.625 86.761719 207.207031 87.292969 C 206.796875 87.828125 206.382812 88.125 205.96875 88.363281 C 205.554688 88.65625 204.90625 88.65625 204.082031 88.65625 Z M 202.898438 83.796875 L 202.898438 86.644531 L 203.429688 86.644531 C 204.253906 86.644531 204.789062 86.527344 205.082031 86.347656 C 205.378906 86.046875 205.5 85.8125 205.5 85.28125 C 205.5 84.332031 204.789062 83.796875 203.308594 83.796875 Z M 209.160156 77.9375 L 211.230469 77.9375 L 211.230469 88.71875 L 209.160156 88.71875 Z M 209.160156 77.9375 "/>
<path style=" stroke:none;fill-rule:nonzero;fill:rgb(51.372549%,56.470588%,76.078431%);fill-opacity:1;" d="M 20.195312 53.046875 L 19.011719 55.0625 C 19.3125 55.007812 19.601562 54.945312 19.839844 55.007812 C 20.136719 55.0625 20.375 55.125 20.609375 55.300781 C 21.140625 55.597656 21.5 56.070312 21.617188 56.722656 C 21.734375 57.375 21.617188 57.96875 21.261719 58.621094 C 20.902344 59.210938 20.375 59.628906 19.78125 59.804688 C 19.128906 59.984375 18.601562 59.921875 18.066406 59.628906 C 17.832031 59.511719 17.65625 59.332031 17.476562 59.09375 C 17.300781 58.914062 17.183594 58.621094 17.121094 58.324219 L 16.886719 58.738281 L 15.886719 58.148438 L 19.25 52.457031 Z M 19.839844 56.132812 C 19.546875 55.953125 19.191406 55.894531 18.839844 55.953125 C 18.484375 56.070312 18.1875 56.25 18.011719 56.605469 C 17.773438 56.960938 17.714844 57.316406 17.832031 57.667969 C 17.949219 58.023438 18.128906 58.324219 18.421875 58.503906 C 18.71875 58.675781 19.074219 58.738281 19.429688 58.621094 C 19.78125 58.503906 20.074219 58.265625 20.253906 57.96875 C 20.492188 57.613281 20.546875 57.257812 20.429688 56.902344 C 20.375 56.605469 20.136719 56.308594 19.839844 56.132812 Z M 19.839844 56.132812 "/>
<path style=" stroke:none;fill-rule:nonzero;fill:rgb(51.372549%,56.470588%,76.078431%);fill-opacity:1;" d="M 25.75 61.109375 L 25.925781 62.171875 L 25.515625 62.292969 L 25.097656 62.351562 L 25.453125 63.835938 L 24.152344 63.0625 L 24.035156 62.472656 C 23.269531 62.472656 22.617188 62.292969 22.089844 62 C 21.671875 61.757812 21.378906 61.402344 21.261719 60.992188 C 21.140625 60.574219 21.199219 60.15625 21.4375 59.804688 C 21.617188 59.511719 21.851562 59.269531 22.144531 59.09375 C 22.445312 58.914062 22.855469 58.796875 23.390625 58.738281 C 23.328125 58.023438 23.390625 57.496094 23.625 57.140625 C 23.800781 56.84375 24.035156 56.660156 24.453125 56.542969 C 24.863281 56.425781 25.277344 56.488281 25.6875 56.722656 C 26.105469 56.960938 26.398438 57.316406 26.460938 57.730469 C 26.515625 58.148438 26.515625 58.441406 26.34375 58.738281 C 26.222656 58.976562 26.042969 59.09375 25.808594 59.269531 C 25.570312 59.390625 25.160156 59.566406 24.570312 59.683594 C 24.6875 60.457031 24.804688 60.992188 24.863281 61.164062 C 24.925781 61.226562 25.21875 61.226562 25.75 61.109375 Z M 23.742188 61.34375 C 23.679688 61.046875 23.5625 60.574219 23.507812 59.921875 C 22.972656 59.984375 22.617188 60.15625 22.445312 60.394531 C 22.382812 60.511719 22.382812 60.636719 22.445312 60.8125 C 22.5 60.992188 22.617188 61.109375 22.734375 61.164062 C 22.917969 61.285156 23.269531 61.34375 23.742188 61.34375 Z M 24.453125 58.675781 C 24.863281 58.621094 25.160156 58.503906 25.21875 58.324219 C 25.277344 58.203125 25.277344 58.148438 25.277344 58.023438 C 25.277344 57.90625 25.160156 57.851562 25.097656 57.789062 C 24.980469 57.730469 24.925781 57.730469 24.804688 57.730469 C 24.6875 57.730469 24.625 57.789062 24.570312 57.90625 C 24.453125 58.085938 24.453125 58.382812 24.453125 58.675781 Z M 24.453125 58.675781 "/>
<path style=" stroke:none;fill-rule:nonzero;fill:rgb(51.372549%,56.470588%,76.078431%);fill-opacity:1;" d="M 29.53125 58.738281 L 30.539062 59.332031 L 29.648438 60.8125 L 30.238281 61.164062 L 29.710938 62.054688 L 29.121094 61.699219 L 27.226562 64.898438 L 26.222656 64.308594 L 28.113281 61.109375 L 27.578125 60.8125 L 28.113281 59.921875 L 28.648438 60.21875 Z M 29.53125 58.738281 "/>
<path style=" stroke:none;fill-rule:nonzero;fill:rgb(51.372549%,56.470588%,76.078431%);fill-opacity:1;" d="M 34.144531 59.566406 L 34.144531 61.9375 C 34.378906 61.699219 34.617188 61.582031 34.851562 61.464844 C 35.089844 61.34375 35.382812 61.285156 35.679688 61.285156 C 36.269531 61.285156 36.796875 61.519531 37.269531 62 C 37.6875 62.472656 37.921875 63.0625 37.921875 63.773438 C 37.921875 64.488281 37.6875 65.078125 37.269531 65.550781 C 36.796875 66.023438 36.269531 66.261719 35.679688 66.261719 C 35.382812 66.261719 35.144531 66.203125 34.910156 66.140625 C 34.671875 66.023438 34.4375 65.90625 34.199219 65.667969 L 34.199219 66.140625 L 33.019531 66.140625 L 33.019531 59.566406 Z M 35.441406 62.410156 C 35.089844 62.410156 34.734375 62.527344 34.5 62.828125 C 34.261719 63.0625 34.144531 63.417969 34.144531 63.835938 C 34.144531 64.25 34.261719 64.605469 34.5 64.839844 C 34.734375 65.078125 35.027344 65.253906 35.441406 65.253906 C 35.796875 65.253906 36.089844 65.132812 36.386719 64.839844 C 36.625 64.605469 36.742188 64.25 36.742188 63.835938 C 36.742188 63.417969 36.625 63.0625 36.386719 62.828125 C 36.089844 62.527344 35.796875 62.410156 35.441406 62.410156 Z M 35.441406 62.410156 "/>
<path style=" stroke:none;fill-rule:nonzero;fill:rgb(51.372549%,56.470588%,76.078431%);fill-opacity:1;" d="M 43.066406 63.652344 L 43.773438 64.488281 L 43.417969 64.78125 L 43.066406 65.078125 L 44.066406 66.140625 L 42.59375 66.140625 L 42.175781 65.730469 C 41.53125 66.140625 40.875 66.320312 40.285156 66.320312 C 39.8125 66.320312 39.398438 66.203125 39.105469 65.90625 C 38.808594 65.613281 38.632812 65.253906 38.632812 64.78125 C 38.632812 64.425781 38.6875 64.125 38.867188 63.835938 C 39.042969 63.535156 39.339844 63.242188 39.75 62.882812 C 39.339844 62.351562 39.105469 61.820312 39.105469 61.402344 C 39.105469 61.109375 39.222656 60.753906 39.515625 60.457031 C 39.8125 60.15625 40.167969 59.984375 40.703125 59.984375 C 41.230469 59.984375 41.585938 60.15625 41.882812 60.457031 C 42.175781 60.753906 42.292969 61.046875 42.292969 61.402344 C 42.292969 61.636719 42.238281 61.878906 42.121094 62.117188 C 42 62.351562 41.703125 62.644531 41.292969 63.125 C 41.820312 63.714844 42.175781 64.125 42.292969 64.25 C 42.414062 64.125 42.648438 63.953125 43.066406 63.652344 Z M 41.46875 64.898438 C 41.230469 64.660156 40.9375 64.308594 40.523438 63.773438 C 40.105469 64.125 39.871094 64.425781 39.871094 64.722656 C 39.871094 64.839844 39.933594 64.960938 40.050781 65.078125 C 40.167969 65.195312 40.34375 65.253906 40.523438 65.253906 C 40.757812 65.195312 41.058594 65.078125 41.46875 64.898438 Z M 40.703125 62.234375 C 40.996094 61.9375 41.175781 61.699219 41.175781 61.519531 C 41.175781 61.402344 41.113281 61.34375 41.058594 61.226562 C 40.996094 61.109375 40.875 61.109375 40.757812 61.109375 C 40.640625 61.109375 40.578125 61.164062 40.460938 61.226562 C 40.40625 61.285156 40.34375 61.402344 40.34375 61.519531 C 40.40625 61.699219 40.523438 61.9375 40.703125 62.234375 Z M 40.703125 62.234375 "/>
<path style=" stroke:none;fill-rule:nonzero;fill:rgb(51.372549%,56.470588%,76.078431%);fill-opacity:1;" d="M 45.128906 59.628906 L 46.3125 59.628906 L 46.3125 61.402344 L 47.019531 61.402344 L 47.019531 62.410156 L 46.3125 62.410156 L 46.3125 66.140625 L 45.128906 66.140625 L 45.128906 62.410156 L 44.539062 62.410156 L 44.539062 61.402344 L 45.128906 61.402344 Z M 45.128906 59.628906 "/>
<path style=" stroke:none;fill-rule:nonzero;fill:rgb(51.372549%,56.470588%,76.078431%);fill-opacity:1;" d="M 50.332031 59.03125 L 51.332031 61.164062 C 51.453125 60.871094 51.570312 60.636719 51.75 60.457031 C 51.925781 60.277344 52.160156 60.101562 52.398438 59.984375 C 52.988281 59.746094 53.523438 59.683594 54.113281 59.921875 C 54.703125 60.15625 55.175781 60.636719 55.472656 61.285156 C 55.765625 61.9375 55.828125 62.589844 55.59375 63.179688 C 55.410156 63.835938 55 64.25 54.46875 64.488281 C 54.230469 64.605469 53.996094 64.660156 53.703125 64.660156 C 53.460938 64.660156 53.167969 64.605469 52.871094 64.542969 L 53.105469 65.015625 L 52.042969 65.496094 L 49.269531 59.511719 Z M 52.695312 61.046875 C 52.339844 61.226562 52.105469 61.464844 51.984375 61.820312 C 51.867188 62.171875 51.925781 62.527344 52.042969 62.882812 C 52.222656 63.242188 52.457031 63.535156 52.8125 63.652344 C 53.167969 63.773438 53.460938 63.773438 53.820312 63.597656 C 54.175781 63.417969 54.347656 63.179688 54.46875 62.828125 C 54.585938 62.472656 54.527344 62.117188 54.347656 61.757812 C 54.175781 61.402344 53.9375 61.164062 53.578125 60.992188 C 53.34375 60.871094 53.050781 60.871094 52.695312 61.046875 Z M 52.695312 61.046875 "/>
<path style=" stroke:none;fill-rule:nonzero;fill:rgb(51.372549%,56.470588%,76.078431%);fill-opacity:1;" d="M 60.140625 58.976562 L 61.144531 59.449219 L 60.96875 59.863281 L 60.789062 60.277344 L 62.207031 60.8125 L 60.851562 61.464844 L 60.261719 61.226562 C 59.78125 61.878906 59.308594 62.292969 58.78125 62.589844 C 58.308594 62.828125 57.890625 62.828125 57.539062 62.707031 C 57.128906 62.589844 56.828125 62.292969 56.65625 61.878906 C 56.535156 61.582031 56.476562 61.226562 56.476562 60.871094 C 56.476562 60.511719 56.65625 60.101562 56.890625 59.628906 C 56.300781 59.269531 55.882812 58.914062 55.710938 58.558594 C 55.59375 58.265625 55.59375 57.90625 55.710938 57.550781 C 55.828125 57.140625 56.121094 56.84375 56.535156 56.660156 C 57.007812 56.425781 57.421875 56.425781 57.773438 56.605469 C 58.128906 56.78125 58.425781 57.023438 58.546875 57.257812 C 58.664062 57.496094 58.664062 57.730469 58.664062 57.96875 C 58.664062 58.203125 58.546875 58.621094 58.308594 59.210938 C 59.015625 59.566406 59.488281 59.746094 59.726562 59.804688 C 59.78125 59.683594 59.902344 59.390625 60.140625 58.976562 Z M 57.421875 58.675781 C 57.601562 58.265625 57.65625 58.023438 57.539062 57.789062 C 57.480469 57.667969 57.421875 57.613281 57.300781 57.613281 C 57.183594 57.550781 57.128906 57.613281 57.007812 57.613281 C 56.890625 57.667969 56.828125 57.730469 56.828125 57.851562 C 56.773438 57.96875 56.773438 58.023438 56.828125 58.148438 C 56.949219 58.324219 57.128906 58.503906 57.421875 58.675781 Z M 59.191406 60.753906 C 58.898438 60.636719 58.425781 60.457031 57.890625 60.15625 C 57.65625 60.691406 57.601562 61.046875 57.71875 61.285156 C 57.773438 61.402344 57.890625 61.464844 58.011719 61.519531 C 58.191406 61.582031 58.308594 61.582031 58.484375 61.464844 C 58.71875 61.34375 58.957031 61.109375 59.191406 60.753906 Z M 59.191406 60.753906 "/>
<path style=" stroke:none;fill-rule:nonzero;fill:rgb(51.372549%,56.470588%,76.078431%);fill-opacity:1;" d="M 60.316406 54.472656 L 61.378906 53.9375 L 62.152344 55.535156 L 62.796875 55.242188 L 63.214844 56.1875 L 62.5625 56.488281 L 64.160156 59.863281 L 63.09375 60.394531 L 61.5 57.023438 L 60.96875 57.257812 L 60.554688 56.308594 L 61.085938 56.070312 Z M 60.316406 54.472656 "/>
<path style=" stroke:none;fill-rule:nonzero;fill:rgb(51.372549%,56.470588%,76.078431%);fill-opacity:1;" d="M 64.039062 51.449219 L 65.695312 53.109375 C 65.695312 52.8125 65.75 52.519531 65.867188 52.28125 C 65.988281 52.046875 66.105469 51.804688 66.339844 51.566406 C 66.757812 51.15625 67.347656 50.917969 67.9375 50.976562 C 68.589844 50.976562 69.183594 51.273438 69.65625 51.804688 C 70.125 52.339844 70.417969 52.875 70.417969 53.527344 C 70.417969 54.171875 70.246094 54.707031 69.773438 55.179688 C 69.59375 55.363281 69.355469 55.535156 69.121094 55.597656 C 68.882812 55.714844 68.589844 55.777344 68.292969 55.777344 L 68.648438 56.132812 L 67.820312 56.960938 L 63.214844 52.28125 Z M 66.9375 52.574219 C 66.640625 52.8125 66.519531 53.164062 66.519531 53.527344 C 66.519531 53.882812 66.703125 54.234375 66.9375 54.535156 C 67.230469 54.828125 67.585938 55.007812 67.9375 55.007812 C 68.292969 55.007812 68.589844 54.886719 68.882812 54.652344 C 69.121094 54.414062 69.300781 54.054688 69.238281 53.699219 C 69.238281 53.347656 69.0625 52.992188 68.765625 52.691406 C 68.472656 52.398438 68.175781 52.28125 67.820312 52.21875 C 67.527344 52.21875 67.171875 52.339844 66.9375 52.574219 Z M 66.9375 52.574219 "/>
<path style=" stroke:none;fill-rule:nonzero;fill:rgb(51.372549%,56.470588%,76.078431%);fill-opacity:1;" d="M 73.261719 48.132812 L 74.378906 48.1875 L 74.378906 49.078125 L 75.859375 49.140625 L 74.796875 50.203125 L 74.203125 50.203125 C 74.023438 50.976562 73.671875 51.566406 73.261719 51.984375 C 72.898438 52.339844 72.546875 52.519531 72.074219 52.519531 C 71.664062 52.519531 71.308594 52.398438 70.953125 52.046875 C 70.71875 51.804688 70.539062 51.511719 70.480469 51.15625 C 70.363281 50.800781 70.363281 50.386719 70.417969 49.851562 C 69.710938 49.730469 69.238281 49.558594 68.945312 49.257812 C 68.710938 49.023438 68.589844 48.722656 68.589844 48.3125 C 68.589844 47.898438 68.710938 47.542969 69.0625 47.1875 C 69.417969 46.828125 69.828125 46.652344 70.183594 46.707031 C 70.597656 46.707031 70.890625 46.890625 71.128906 47.070312 C 71.308594 47.242188 71.425781 47.480469 71.484375 47.714844 C 71.542969 47.953125 71.601562 48.429688 71.601562 49.023438 C 72.425781 49.078125 72.898438 49.140625 73.140625 49.140625 C 73.140625 48.90625 73.199219 48.605469 73.261719 48.132812 Z M 70.597656 48.722656 C 70.65625 48.3125 70.597656 48.015625 70.417969 47.835938 C 70.363281 47.777344 70.246094 47.714844 70.125 47.714844 C 70.007812 47.714844 69.945312 47.777344 69.828125 47.835938 C 69.773438 47.898438 69.710938 48.015625 69.710938 48.132812 C 69.710938 48.25 69.773438 48.3125 69.828125 48.429688 C 70.007812 48.605469 70.246094 48.667969 70.597656 48.722656 Z M 72.960938 50.085938 C 72.664062 50.085938 72.191406 50.03125 71.542969 49.96875 C 71.484375 50.503906 71.542969 50.917969 71.71875 51.09375 C 71.78125 51.210938 71.953125 51.210938 72.074219 51.210938 C 72.253906 51.210938 72.371094 51.15625 72.488281 51.039062 C 72.726562 50.859375 72.84375 50.558594 72.960938 50.085938 Z M 72.960938 50.085938 "/>
<path style=" stroke:none;fill-rule:nonzero;fill:rgb(51.372549%,56.470588%,76.078431%);fill-opacity:1;" d="M 71.898438 43.808594 L 72.726562 42.976562 L 73.96875 44.21875 L 74.496094 43.746094 L 75.207031 44.457031 L 74.675781 44.933594 L 77.277344 47.597656 L 76.449219 48.429688 L 73.851562 45.761719 L 73.433594 46.179688 L 72.726562 45.464844 L 73.140625 45.054688 Z M 71.898438 43.808594 "/>
<path style=" stroke:none;fill-rule:nonzero;fill:rgb(51.372549%,56.470588%,76.078431%);fill-opacity:1;" d="M 74.914062 39.839844 L 76.859375 41.203125 C 76.804688 40.90625 76.804688 40.605469 76.859375 40.371094 C 76.921875 40.078125 77.039062 39.839844 77.214844 39.597656 C 77.570312 39.070312 78.042969 38.769531 78.695312 38.714844 C 79.339844 38.652344 79.9375 38.769531 80.527344 39.242188 C 81.117188 39.660156 81.472656 40.195312 81.589844 40.84375 C 81.707031 41.496094 81.589844 42.085938 81.234375 42.566406 C 81.054688 42.800781 80.882812 42.976562 80.703125 43.09375 C 80.464844 43.210938 80.230469 43.332031 79.9375 43.394531 L 80.347656 43.691406 L 79.640625 44.636719 L 74.261719 40.84375 Z M 77.921875 40.433594 C 77.6875 40.722656 77.628906 41.085938 77.6875 41.4375 C 77.75 41.792969 77.984375 42.085938 78.277344 42.328125 C 78.632812 42.566406 78.984375 42.683594 79.339844 42.621094 C 79.699219 42.566406 79.992188 42.386719 80.230469 42.085938 C 80.464844 41.792969 80.527344 41.4375 80.464844 41.085938 C 80.410156 40.722656 80.171875 40.433594 79.875 40.195312 C 79.519531 39.957031 79.222656 39.839844 78.867188 39.898438 C 78.394531 39.957031 78.101562 40.132812 77.921875 40.433594 Z M 77.921875 40.433594 "/>
<path style=" stroke:none;fill-rule:nonzero;fill:rgb(51.372549%,56.470588%,76.078431%);fill-opacity:1;" d="M 83.363281 34.921875 L 84.480469 34.800781 L 84.542969 35.273438 L 84.601562 35.691406 L 86.078125 35.457031 L 85.253906 36.636719 L 84.660156 36.753906 C 84.601562 37.527344 84.425781 38.179688 84.070312 38.652344 C 83.773438 39.070312 83.417969 39.304688 83.007812 39.363281 C 82.59375 39.425781 82.179688 39.363281 81.828125 39.070312 C 81.527344 38.890625 81.355469 38.597656 81.175781 38.296875 C 81 38 80.9375 37.589844 80.9375 37.054688 C 80.230469 37.054688 79.699219 36.9375 79.402344 36.699219 C 79.167969 36.519531 78.984375 36.226562 78.867188 35.808594 C 78.75 35.394531 78.867188 34.980469 79.167969 34.566406 C 79.457031 34.148438 79.820312 33.914062 80.230469 33.855469 C 80.644531 33.792969 80.9375 33.855469 81.234375 34.03125 C 81.410156 34.148438 81.589844 34.386719 81.707031 34.566406 C 81.828125 34.800781 81.945312 35.21875 82 35.867188 C 82.828125 35.808594 83.300781 35.746094 83.535156 35.691406 C 83.417969 35.746094 83.363281 35.457031 83.363281 34.921875 Z M 80.820312 36.046875 C 80.765625 35.628906 80.703125 35.335938 80.527344 35.21875 C 80.410156 35.15625 80.347656 35.15625 80.230469 35.15625 C 80.109375 35.15625 80.054688 35.21875 79.992188 35.335938 C 79.9375 35.457031 79.9375 35.511719 79.9375 35.628906 C 79.9375 35.746094 79.992188 35.808594 80.109375 35.867188 C 80.230469 35.988281 80.527344 36.046875 80.820312 36.046875 Z M 83.417969 36.9375 C 83.125 36.992188 82.652344 37.054688 82 37.054688 C 82.0625 37.589844 82.179688 37.945312 82.417969 38.117188 C 82.535156 38.179688 82.652344 38.234375 82.773438 38.179688 C 82.890625 38.117188 83.0625 38.0625 83.183594 37.882812 C 83.300781 37.761719 83.363281 37.410156 83.417969 36.9375 Z M 83.417969 36.9375 "/>
<path style=" stroke:none;fill-rule:nonzero;fill:rgb(51.372549%,56.470588%,76.078431%);fill-opacity:1;" d="M 81.292969 30.953125 L 82 30.003906 L 83.417969 31.007812 L 83.835938 30.417969 L 84.660156 31.007812 L 84.246094 31.605469 L 87.261719 33.738281 L 86.550781 34.683594 L 83.535156 32.550781 L 83.183594 33.023438 L 82.355469 32.433594 L 82.710938 31.960938 Z M 81.292969 30.953125 "/>
<path style=" stroke:none;fill-rule:nonzero;fill:rgb(51.372549%,56.470588%,76.078431%);fill-opacity:1;" d="M 13.398438 39.1875 L 11.214844 40.132812 C 11.507812 40.25 11.746094 40.371094 11.925781 40.605469 C 12.097656 40.785156 12.28125 41.023438 12.398438 41.257812 C 12.632812 41.851562 12.632812 42.386719 12.398438 42.976562 C 12.160156 43.574219 11.6875 43.984375 10.980469 44.28125 C 10.328125 44.582031 9.679688 44.582031 9.089844 44.339844 C 8.5 44.101562 8.019531 43.746094 7.785156 43.15625 C 7.667969 42.921875 7.609375 42.621094 7.609375 42.386719 C 7.609375 42.148438 7.667969 41.851562 7.785156 41.558594 L 7.3125 41.730469 L 6.839844 40.667969 L 12.925781 38.0625 Z M 11.335938 41.4375 C 11.15625 41.085938 10.917969 40.84375 10.625 40.722656 C 10.269531 40.605469 9.917969 40.605469 9.5625 40.785156 C 9.144531 40.964844 8.910156 41.203125 8.792969 41.558594 C 8.671875 41.914062 8.671875 42.210938 8.792969 42.566406 C 8.910156 42.921875 9.207031 43.15625 9.5 43.273438 C 9.855469 43.394531 10.210938 43.394531 10.5625 43.210938 C 10.917969 43.039062 11.214844 42.800781 11.335938 42.503906 C 11.453125 42.085938 11.453125 41.792969 11.335938 41.4375 Z M 11.335938 41.4375 "/>
<path style=" stroke:none;fill-rule:nonzero;fill:rgb(51.372549%,56.470588%,76.078431%);fill-opacity:1;" d="M 13.164062 48.960938 L 12.691406 49.96875 L 12.28125 49.792969 L 11.863281 49.613281 L 11.273438 50.976562 L 10.683594 49.613281 L 10.917969 49.023438 C 10.269531 48.550781 9.855469 48.070312 9.617188 47.542969 C 9.445312 47.070312 9.382812 46.652344 9.5625 46.296875 C 9.738281 45.941406 9.972656 45.644531 10.390625 45.410156 C 10.683594 45.289062 11.035156 45.226562 11.390625 45.289062 C 11.746094 45.347656 12.160156 45.464844 12.632812 45.699219 C 12.988281 45.109375 13.34375 44.699219 13.753906 44.519531 C 14.050781 44.402344 14.40625 44.402344 14.761719 44.519531 C 15.113281 44.636719 15.46875 44.933594 15.648438 45.410156 C 15.824219 45.882812 15.886719 46.296875 15.703125 46.652344 C 15.53125 47.007812 15.292969 47.242188 14.996094 47.363281 C 14.761719 47.542969 14.523438 47.542969 14.226562 47.542969 C 13.988281 47.542969 13.578125 47.363281 12.988281 47.125 C 12.632812 47.835938 12.398438 48.3125 12.335938 48.488281 C 12.453125 48.605469 12.75 48.722656 13.164062 48.960938 Z M 11.390625 47.953125 C 11.507812 47.660156 11.6875 47.242188 12.042969 46.652344 C 11.570312 46.414062 11.15625 46.296875 10.917969 46.414062 C 10.800781 46.472656 10.742188 46.589844 10.683594 46.707031 C 10.625 46.890625 10.625 47.007812 10.742188 47.1875 C 10.800781 47.480469 11.035156 47.714844 11.390625 47.953125 Z M 13.578125 46.234375 C 13.933594 46.414062 14.226562 46.472656 14.460938 46.414062 C 14.578125 46.355469 14.640625 46.296875 14.640625 46.179688 C 14.703125 46.0625 14.703125 46 14.640625 45.882812 C 14.578125 45.761719 14.523438 45.699219 14.40625 45.644531 C 14.289062 45.582031 14.226562 45.582031 14.109375 45.644531 C 13.871094 45.761719 13.695312 45.941406 13.578125 46.234375 Z M 13.578125 46.234375 "/>
<path style=" stroke:none;fill-rule:nonzero;fill:rgb(51.372549%,56.470588%,76.078431%);fill-opacity:1;" d="M 17.65625 49.257812 L 18.128906 50.386719 L 16.53125 51.09375 L 16.828125 51.746094 L 15.886719 52.164062 L 15.585938 51.511719 L 12.160156 52.992188 L 11.6875 51.867188 L 15.113281 50.386719 L 14.878906 49.792969 L 15.824219 49.378906 L 16.058594 49.96875 Z M 17.65625 49.257812 "/>
<path style=" stroke:none;fill-rule:nonzero;fill:rgb(51.372549%,56.470588%,76.078431%);fill-opacity:1;" d="M 17.65625 24.496094 L 15.46875 23.660156 C 15.585938 23.960938 15.648438 24.195312 15.648438 24.496094 C 15.648438 24.789062 15.585938 25.027344 15.53125 25.320312 C 15.292969 25.914062 14.878906 26.328125 14.289062 26.566406 C 13.695312 26.800781 13.042969 26.800781 12.398438 26.507812 C 11.746094 26.273438 11.273438 25.855469 10.980469 25.265625 C 10.683594 24.667969 10.683594 24.078125 10.863281 23.488281 C 10.980469 23.25 11.097656 23.015625 11.273438 22.832031 C 11.453125 22.660156 11.6875 22.480469 11.980469 22.359375 L 11.507812 22.179688 L 11.925781 21.054688 L 18.066406 23.425781 Z M 14.578125 24.613281 C 14.703125 24.257812 14.703125 23.902344 14.578125 23.605469 C 14.40625 23.304688 14.167969 23.070312 13.753906 22.894531 C 13.34375 22.714844 12.988281 22.714844 12.691406 22.894531 C 12.335938 23.015625 12.097656 23.25 11.980469 23.605469 C 11.863281 23.960938 11.863281 24.257812 12.042969 24.613281 C 12.21875 24.96875 12.453125 25.203125 12.871094 25.320312 C 13.222656 25.441406 13.578125 25.503906 13.933594 25.320312 C 14.226562 25.203125 14.460938 24.96875 14.578125 24.613281 Z M 14.578125 24.613281 "/>
<path style=" stroke:none;fill-rule:nonzero;fill:rgb(51.372549%,56.470588%,76.078431%);fill-opacity:1;" d="M 10.683594 31.304688 L 9.617188 31.660156 L 9.445312 31.25 L 9.265625 30.832031 L 7.902344 31.425781 L 8.4375 30.0625 L 8.972656 29.824219 C 8.855469 29.054688 8.855469 28.402344 9.089844 27.871094 C 9.265625 27.398438 9.5625 27.101562 9.917969 26.921875 C 10.269531 26.746094 10.683594 26.746094 11.097656 26.863281 C 11.390625 26.984375 11.6875 27.15625 11.925781 27.457031 C 12.160156 27.753906 12.335938 28.109375 12.453125 28.644531 C 13.105469 28.464844 13.636719 28.464844 14.050781 28.582031 C 14.34375 28.699219 14.578125 28.9375 14.761719 29.289062 C 14.941406 29.644531 14.941406 30.0625 14.761719 30.535156 C 14.578125 31.007812 14.289062 31.304688 13.933594 31.484375 C 13.578125 31.605469 13.222656 31.660156 12.925781 31.542969 C 12.691406 31.484375 12.515625 31.304688 12.335938 31.132812 C 12.160156 30.953125 11.980469 30.535156 11.6875 29.945312 C 10.917969 30.242188 10.445312 30.417969 10.269531 30.480469 C 10.390625 30.535156 10.507812 30.832031 10.683594 31.304688 Z M 10.089844 29.410156 C 10.390625 29.289062 10.863281 29.117188 11.453125 28.9375 C 11.273438 28.402344 11.035156 28.109375 10.800781 27.992188 C 10.683594 27.929688 10.5625 27.929688 10.390625 28.046875 C 10.269531 28.109375 10.152344 28.226562 10.089844 28.402344 C 10.035156 28.582031 10.035156 28.9375 10.089844 29.410156 Z M 12.808594 29.644531 C 12.925781 30.0625 13.105469 30.296875 13.34375 30.359375 C 13.460938 30.417969 13.515625 30.417969 13.636719 30.359375 C 13.753906 30.296875 13.816406 30.242188 13.816406 30.125 C 13.871094 30.003906 13.871094 29.945312 13.816406 29.824219 C 13.753906 29.707031 13.695312 29.644531 13.578125 29.644531 C 13.398438 29.527344 13.164062 29.589844 12.808594 29.644531 Z M 12.808594 29.644531 "/>
<path style=" stroke:none;fill-rule:nonzero;fill:rgb(51.372549%,56.470588%,76.078431%);fill-opacity:1;" d="M 13.636719 34.683594 L 13.222656 35.808594 L 11.570312 35.15625 L 11.335938 35.808594 L 10.390625 35.457031 L 10.625 34.800781 L 7.136719 33.441406 L 7.609375 32.375 L 11.097656 33.738281 L 11.335938 33.140625 L 12.28125 33.496094 L 12.042969 34.09375 Z M 13.636719 34.683594 "/>
<path style=" stroke:none;fill-rule:nonzero;fill:rgb(51.372549%,56.470588%,76.078431%);fill-opacity:1;" d="M 30.003906 15.839844 L 28.765625 13.828125 C 28.703125 14.125 28.585938 14.359375 28.410156 14.597656 C 28.230469 14.835938 28.058594 15.015625 27.820312 15.132812 C 27.285156 15.488281 26.695312 15.550781 26.105469 15.367188 C 25.515625 15.195312 24.980469 14.777344 24.625 14.1875 C 24.273438 13.589844 24.152344 12.941406 24.273438 12.289062 C 24.390625 11.636719 24.746094 11.164062 25.277344 10.863281 C 25.515625 10.746094 25.75 10.628906 25.988281 10.574219 C 26.222656 10.511719 26.515625 10.574219 26.8125 10.628906 L 26.578125 10.21875 L 27.578125 9.566406 L 31.066406 15.195312 Z M 27.460938 14.125 C 27.757812 13.949219 27.996094 13.652344 28.058594 13.296875 C 28.113281 12.941406 28.058594 12.582031 27.820312 12.226562 C 27.578125 11.871094 27.285156 11.636719 26.988281 11.578125 C 26.632812 11.460938 26.28125 11.519531 25.988281 11.753906 C 25.6875 11.933594 25.515625 12.226562 25.398438 12.582031 C 25.335938 12.941406 25.398438 13.296875 25.632812 13.652344 C 25.871094 14.007812 26.105469 14.242188 26.460938 14.304688 C 26.8125 14.359375 27.167969 14.359375 27.460938 14.125 Z M 27.460938 14.125 "/>
<path style=" stroke:none;fill-rule:nonzero;fill:rgb(51.372549%,56.470588%,76.078431%);fill-opacity:1;" d="M 20.3125 17.085938 L 19.25 16.730469 L 19.367188 16.320312 L 19.484375 15.902344 L 18.066406 15.550781 L 19.3125 14.777344 L 19.902344 14.953125 C 20.253906 14.242188 20.667969 13.769531 21.199219 13.472656 C 21.617188 13.234375 22.027344 13.117188 22.445312 13.234375 C 22.855469 13.296875 23.152344 13.535156 23.390625 13.949219 C 23.5625 14.242188 23.679688 14.542969 23.679688 14.894531 C 23.679688 15.25 23.625 15.667969 23.445312 16.140625 C 24.097656 16.375 24.507812 16.730469 24.746094 17.085938 C 24.925781 17.382812 24.980469 17.683594 24.863281 18.09375 C 24.804688 18.511719 24.570312 18.863281 24.097656 19.101562 C 23.679688 19.335938 23.269531 19.457031 22.855469 19.335938 C 22.445312 19.21875 22.207031 19.046875 22.027344 18.746094 C 21.910156 18.511719 21.851562 18.328125 21.792969 18.039062 C 21.792969 17.800781 21.851562 17.320312 21.972656 16.730469 C 21.199219 16.496094 20.726562 16.320312 20.492188 16.257812 C 20.609375 16.320312 20.492188 16.613281 20.3125 17.085938 Z M 21.019531 15.195312 C 21.320312 15.25 21.792969 15.429688 22.382812 15.605469 C 22.5625 15.070312 22.5625 14.714844 22.445312 14.480469 C 22.382812 14.359375 22.265625 14.304688 22.089844 14.304688 C 21.910156 14.304688 21.792969 14.304688 21.617188 14.421875 C 21.5 14.542969 21.261719 14.777344 21.019531 15.195312 Z M 23.035156 17.085938 C 22.917969 17.503906 22.917969 17.800781 23.035156 17.976562 C 23.089844 18.09375 23.152344 18.15625 23.269531 18.15625 C 23.390625 18.15625 23.445312 18.15625 23.5625 18.09375 C 23.679688 18.039062 23.742188 17.976562 23.742188 17.855469 C 23.742188 17.738281 23.742188 17.683594 23.679688 17.5625 C 23.5625 17.320312 23.390625 17.203125 23.035156 17.085938 Z M 23.035156 17.085938 "/>
<path style=" stroke:none;fill-rule:nonzero;fill:rgb(51.372549%,56.470588%,76.078431%);fill-opacity:1;" d="M 20.667969 21.589844 L 19.664062 22.242188 L 18.71875 20.761719 L 18.128906 21.117188 L 17.59375 20.226562 L 18.1875 19.871094 L 16.238281 16.675781 L 17.242188 16.023438 L 19.191406 19.21875 L 19.722656 18.925781 L 20.253906 19.8125 L 19.722656 20.109375 Z M 20.667969 21.589844 "/>
</g>
</svg>
