<svg xmlns="http://www.w3.org/2000/svg" xmlns:xlink="http://www.w3.org/1999/xlink" xmlns:xodm="http://www.corel.com/coreldraw/odm/2003" xml:space="preserve" width="1000px" height="182px" version="1.1" style="shape-rendering:geometricPrecision; text-rendering:geometricPrecision; image-rendering:optimizeQuality; fill-rule:evenodd; clip-rule:evenodd" viewBox="0 0 4262.56 775.71">
 <defs>
  <style type="text/css">
   <![CDATA[
    .fil2 {fill:#FEFEFE;fill-rule:nonzero}
    .fil1 {fill:#E5302E;fill-rule:nonzero}
    .fil0 {fill:#E31E24;fill-rule:nonzero}
   ]]>
  </style>
 </defs>
 <g id="Слой_x0020_1">
  <metadata id="CorelCorpID_0Corel-Layer"/>
  <path class="fil0" d="M2333.58 308.76c0.13,4.46 -3.4,8.07 -7.9,8.14 -4.45,0 -8.11,-3.47 -8.17,-7.88 -0.13,-4.59 3.48,-8.17 7.95,-8.22 4.44,0 8.16,3.51 8.12,7.96z"/>
  <path class="fil0" d="M2331.29 308.76c-0.19,7.38 -11.24,7.62 -11.49,0.26 -0.25,-7.5 11.15,-7.71 11.49,-0.26 0.14,2.93 4.72,2.95 4.58,0 -0.26,-5.63 -4.6,-10.26 -10.41,-10.24 -5.72,0.02 -10.31,4.83 -10.23,10.5 0.07,5.44 4.59,9.95 10.01,10.14 6,0.21 10.48,-4.59 10.63,-10.4 0.08,-2.94 -4.5,-2.94 -4.58,0z"/>
  <path class="fil0" d="M2331.58 379.09c0.13,4.43 -3.47,8.02 -7.91,8.1 -4.43,0.05 -8.1,-3.46 -8.19,-7.87 -0.13,-4.54 3.47,-8.15 7.94,-8.23 4.48,0.02 8.17,3.59 8.16,8z"/>
  <path class="fil0" d="M2329.3 379.09c-0.2,7.34 -11.27,7.58 -11.54,0.23 -0.27,-7.52 11.14,-7.67 11.54,-0.23 0.16,2.92 4.73,2.94 4.57,0 -0.29,-5.61 -4.63,-10.31 -10.45,-10.28 -5.68,0.02 -10.32,4.88 -10.23,10.51 0.09,5.43 4.63,9.98 10.04,10.14 5.96,0.18 10.48,-4.58 10.64,-10.37 0.08,-2.95 -4.49,-2.95 -4.57,0z"/>
  <path class="fil0" d="M2329.45 457.87c0.18,4.47 -3.44,8.08 -7.87,8.2 -4.41,-0.01 -8.15,-3.53 -8.16,-7.94 -0.13,-4.56 3.47,-8.15 7.91,-8.21 4.47,-0.01 8.16,3.55 8.12,7.95z"/>
  <path class="fil0" d="M2327.16 457.87c-0.11,7.45 -11.25,7.65 -11.46,0.26 -0.21,-7.48 11.13,-7.69 11.46,-0.26 0.13,2.93 4.7,2.95 4.57,0 -0.25,-5.62 -4.6,-10.26 -10.4,-10.24 -5.71,0.03 -10.27,4.86 -10.2,10.5 0.06,5.42 4.59,10.03 10.01,10.2 5.95,0.19 10.51,-4.67 10.59,-10.46 0.04,-2.94 -4.53,-2.94 -4.57,0z"/>
  <path class="fil1" d="M2158.61 425.1c-0.41,-0.53 -1.5,-1.64 -1.65,-1.68 -9.26,-7.87 -27.02,-3.71 -27.02,-3.71 -3.81,0.58 -10.17,5.25 -12.99,5.8 -7.92,0.71 -18.45,2.84 -18.45,2.84 -5.61,1.98 -2.52,6.84 -2.52,6.84 6.2,4.34 19.88,-0.85 19.88,-0.85 9.85,-1.38 -1.44,6.44 -1.44,6.44 -20.72,6.3 -28.52,10.72 -28.52,10.72 -11.09,7.91 0.24,9.1 0.24,9.1 -12.56,11.01 9.4,6.24 9.4,6.24 -3.21,2.06 -4.57,3.83 -2.21,5.2 6.17,3.72 24.62,-4.13 24.62,-4.13 -2.09,2.96 -0.06,6.6 14.33,-2.79 4.58,-2.97 15.45,-12.21 19.44,-15.08 5.45,-4.05 8.01,-11.89 10.6,-12.19 7.5,-0.9 13.04,-3.16 13.04,-3.16 0,0 -4.33,-18.45 -9.24,-19.7l-9.16 8.43 1.65 1.68z"/>
  <g>
   <path class="fil1" d="M2449.12 343.31c-1.78,2.4 -1.55,4.57 0.14,6.98 3.04,4.35 6.04,8.74 8.77,13.29 6.85,11.39 13.54,22.88 20.3,34.32 1.59,2.69 2.45,2.95 4.95,1.07l-34.16 -55.66zm-199.89 388.96c-1.67,-10.59 -4.09,-20.32 -7.78,-29.7 -4.28,-10.92 -9.79,-21.09 -18.47,-29.25 -5.88,-5.53 -12.71,-9.13 -20.69,-10.55 -7.45,-1.34 -14.7,-0.26 -22.03,1.23 -7.61,1.55 -14.79,8.85 -16.05,17.48 -0.23,1.56 0.11,2.82 1.37,3.83 2.92,2.36 5.63,5.03 8.76,7.06 5.75,3.73 11.61,7.35 17.67,10.56 17.42,9.22 34.95,18.21 52.45,27.27 1.36,0.7 2.82,1.22 4.77,2.07zm255.78 -65.92c-0.99,0.07 -1.63,0.03 -2.23,0.18 -3.02,0.72 -6.04,1.42 -9.01,2.26 -14.98,4.25 -29.01,10.33 -40.43,21.29 -5.68,5.45 -10.02,11.78 -12.38,19.37 -2.85,9.17 -2.17,18.3 -0.16,27.53 0.94,4.3 2.66,7.82 6.25,10.52 3.65,2.74 7.29,5.34 11.71,6.78 2.73,0.9 4.45,-0.11 5.97,-2.13 0.33,-0.45 0.65,-0.91 0.92,-1.39 3.36,-5.85 6.95,-11.59 10.03,-17.59 8.61,-16.75 15.88,-34.11 23.14,-51.47 2.08,-4.99 4.04,-10.02 6.19,-15.35zm-73.02 -548.58c0.95,-3.15 1.75,-5.68 2.48,-8.23 6.3,-22.02 13,-43.94 15.59,-66.83 0.65,-5.71 0.63,-6.38 -4.73,-8.35 -9.15,-3.35 -18.3,-6.73 -27.62,-9.54 -20.4,-6.16 -41.23,-10.05 -62.58,-10.95 -16.46,-0.7 -32.73,0.46 -48.83,4.03 -15.68,3.47 -30.6,8.92 -44.25,17.52 -4.77,3.01 -4.64,3.04 -3.99,8.52 1.16,9.88 2.19,19.77 3.23,29.67 0.73,6.92 1.32,13.86 2.11,20.78 1.45,12.74 2.95,25.47 4.55,38.18 0.87,6.9 1.68,13.85 3.08,20.66 3.15,15.3 9.16,29.57 16.5,43.3 5.7,10.65 12.82,20.19 22.25,27.85 9.98,8.11 21.26,13.07 34.22,13.84 10.82,0.64 21.13,-1.64 31.09,-5.67 8.58,-3.48 16.54,-8.03 23.32,-14.42 7.94,-7.49 12.8,-16.9 16.62,-26.91 5.07,-13.29 8.33,-27.06 10.57,-41.09 0.3,-1.91 0.46,-3.84 0.72,-6.08 -3.4,0.29 -6.37,0.81 -9.32,0.72 -6.62,-0.18 -13.24,-0.58 -19.86,-1.05 -14.03,-1 -27.91,-3.1 -41.72,-5.65 -24.7,-4.55 -48.52,-12.14 -71.91,-21.14 -0.41,-0.16 -0.99,-0.25 -1.17,-0.56 -0.41,-0.7 -0.96,-1.58 -0.82,-2.27 0.19,-0.98 1.04,-1.7 2.26,-1.39 0.42,0.11 0.84,0.28 1.27,0.39 5.7,1.37 11.35,2.97 17.1,4.06 9.12,1.73 18.36,2.87 27.45,4.75 10.13,2.09 20.29,3.29 30.62,3.32 11.75,0.03 23.43,-0.98 35.1,-2.12 7.91,-0.78 15.82,-1.71 23.7,-2.8 4.36,-0.6 8.65,-1.68 12.97,-2.54zm35.77 290.41c-10.82,-17.91 -21.51,-35.61 -32.31,-53.49 -1.12,0.68 -1.97,1.17 -2.8,1.7 -6.54,4.18 -13.25,8.04 -20.55,10.77 -4.8,1.8 -9.7,3.21 -14.9,2.88 -1.21,-0.08 -2.41,-0.46 -4.19,-0.81 1.09,-0.87 1.57,-1.29 2.09,-1.67 8.68,-6.52 17.44,-12.93 26.02,-19.58 8.57,-6.65 16.85,-13.56 23.07,-22.73 4.21,-6.21 9.44,-11.73 14.02,-17.69 4.39,-5.7 4.32,-6.51 0.65,-12.65 -4.31,-7.22 -9.96,-13.27 -16.35,-18.66 -16.86,-14.21 -36.36,-22.98 -57.66,-28.2 -4.92,-1.2 -9.55,-1.45 -14.21,0.59 -0.51,0.22 -1.07,0.3 -1.6,0.43 -15.02,3.9 -29.98,4.29 -44.77,-0.93 -2.68,-0.95 -4.91,-0.42 -7.34,0.5 -12.25,4.6 -22.61,12.1 -32.05,20.97 -11.1,10.43 -20.76,22.15 -29.42,34.64 -6.3,9.1 -12.21,18.48 -18.4,27.91 2.05,2.79 3.78,5.08 5.43,7.43 3.18,4.51 7.02,8.2 11.99,10.76 4.09,2.11 5.27,6.53 2.83,10.5 -6.76,11 -11.85,22.8 -16.75,34.67 -13.12,31.76 -24.12,64.25 -33.64,97.25 -5.74,19.89 -11.05,39.9 -13.95,60.44 -0.68,4.79 -0.8,9.68 -0.86,14.53 -0.04,3.16 0.19,3.28 3.28,3.93 12.87,2.75 25.71,5.7 38.65,8.07 18.49,3.39 37.18,5.5 55.94,6.68 10.82,0.68 21.66,1.21 32.5,1.39 16.16,0.27 32.33,0.04 48.47,-1.26 8.14,-0.67 16.3,-1.28 24.44,-2 16.21,-1.42 32.29,-3.8 48.28,-6.71 21.48,-3.91 42.7,-8.83 63.37,-15.95 7.34,-2.53 14.63,-5.19 21.33,-9.16 1.66,-0.98 3.24,-2.36 4.37,-3.92 4.09,-5.66 4.58,-12.01 3.11,-18.67 -1.7,-7.67 -5.18,-14.62 -8.97,-21.37 -6.03,-10.72 -12.3,-21.3 -18.53,-31.89 -10.67,-18.15 -21.4,-36.26 -32.12,-54.37 -0.4,-0.68 -0.95,-1.25 -1.43,-1.88l-7.04 -12.45zm19.57 4.76c0.66,1.13 1.25,2.17 1.86,3.21 14.98,25.4 30.02,50.78 44.94,76.22 3.8,6.49 7.45,13.09 10.83,19.81 3.55,7.09 5.78,14.61 6.11,22.62 0.41,9.88 -2.43,18.67 -9.14,25.93 -3.58,3.86 -8.39,6.12 -13.14,8.3 -12.22,5.62 -24.96,9.83 -37.93,13.16 -14.47,3.72 -29.05,7.11 -43.72,9.96 -12.05,2.35 -24.3,3.7 -36.46,5.49 -1.95,0.29 -3.9,0.58 -5.85,0.86 -0.15,0.29 -0.28,0.58 -0.42,0.87 0.63,0.67 1.2,1.41 1.9,1.99 5.68,4.63 11.22,9.44 17.13,13.75 4.37,3.18 9.1,5.95 13.92,8.44 10.43,5.4 20.92,10.69 31.58,15.62 4.9,2.26 10.21,3.65 15.39,5.24 4.65,1.43 9.39,2.6 14.1,3.88 3.2,0.87 6.41,1.73 9.8,1.39 2.91,-0.3 5.35,0.64 7.51,2.7 2.16,2.06 4.49,3.98 6.93,5.72 2.08,1.47 2.55,3.2 1.67,5.45 -2.1,5.36 -4.18,10.73 -6.33,16.07 -1.61,4 -3.36,7.95 -4.97,11.95 -5.59,13.87 -11.14,27.76 -16.71,41.65 -3.55,8.84 -7.19,17.65 -10.61,26.54 -1.63,4.21 -4.89,5.95 -8.93,6.26 -4.95,0.38 -9.94,0.04 -14.9,0.71 -4.04,0.54 -7.89,-0.56 -11.57,-2.36 -5.76,-2.82 -10.68,-6.76 -15.13,-11.28 -3.46,-3.51 -4.99,-8.06 -6.08,-12.75 -1.47,-6.29 -2.57,-12.67 -2.09,-19.12 1.02,-13.56 4.93,-26 14.35,-36.36 7.97,-8.77 17.46,-15.33 28.12,-20.3 3.2,-1.49 6.55,-2.69 9.82,-4.04 0.57,-0.24 1.11,-0.54 1.79,-0.87 -7.15,-2.25 -14.02,-4.51 -20.95,-6.57 -14.05,-4.19 -27.67,-9.5 -41.01,-15.55 -0.6,-0.27 -1.24,-0.5 -1.8,-0.84 -12.62,-7.84 -25.34,-15.53 -37.78,-23.64 -3.27,-2.13 -5.81,-5.44 -8.42,-8.45 -1.91,-2.21 -3.94,-3.12 -6.89,-2.92 -6.41,0.42 -12.85,0.51 -19.27,0.72 -2.77,0.09 -5.18,1.23 -7.36,2.79 -5.6,4.01 -10.85,8.43 -15.45,13.6 -9.17,10.34 -16.78,21.76 -23.58,33.75 -6.79,11.97 -12.97,24.26 -18.05,37.04 -4.74,11.94 -9.15,24.01 -13.5,36.1 -0.87,2.43 -0.99,5.19 -1.12,7.81 -0.38,7.83 -3.49,14.06 -10.12,18.43 -1.11,0.73 -2.16,0.99 -3.42,0.47 -2.96,-1.23 -6.02,-2.26 -8.9,-3.66 -14.05,-6.83 -28.04,-13.79 -42.08,-20.64 -14.44,-7.05 -28.9,-14.06 -43.37,-21.05 -4.65,-2.26 -6.6,-5.45 -6.22,-10.92 0.3,-4.31 0.33,-8.61 0.36,-12.93 0.08,-10.67 4.97,-19.07 13.3,-25.6 5.29,-4.14 11.58,-5.5 17.92,-6.49 7.7,-1.19 15.45,-1.41 23.14,0.31 10.72,2.38 19.7,7.78 27.31,15.63 7.85,8.11 13.08,17.82 17.45,28.08 1.44,3.36 2.66,6.81 4,10.21 0.4,1 0.89,1.96 1.69,3.71 0.9,-2.54 1.61,-4.24 2.11,-6.01 1.61,-5.76 3.06,-11.56 4.72,-17.31 2.03,-6.99 4.12,-13.96 6.34,-20.89 6.08,-19.01 12.8,-37.78 22.01,-55.55 1.16,-2.24 2.5,-4.39 4.02,-7.06 -1.61,-0.42 -2.91,-0.97 -4.26,-1.08 -6.52,-0.53 -13.05,-0.79 -19.56,-1.45 -8.26,-0.83 -16.51,-1.92 -24.75,-2.98 -5.81,-0.75 -11.73,-1.18 -17.39,-2.61 -6.77,-1.71 -13.72,-2.36 -20.48,-4.06 -6.98,-1.75 -13.99,-3.36 -21,-4.98 -6.08,-1.41 -9.5,-5.19 -10.64,-11.29 -1,-5.42 -0.85,-10.82 -0.32,-16.24 1.93,-19.72 6.59,-38.89 12.03,-57.86 5.06,-17.67 10.39,-35.28 16.05,-52.78 3.99,-12.32 8.72,-24.41 13.1,-36.61 0.41,-1.11 0.75,-2.25 1.3,-3.92 -0.98,0.52 -1.48,0.68 -1.86,0.98 -13.43,10.93 -28.81,18.17 -45.02,23.81 -2.08,0.73 -2.5,0.96 -3.87,1.83l-3.32 -14.12c1.91,-0.79 3.85,-1.55 5.76,-2.36 19.62,-8.31 34.95,-21.72 46.09,-39.76 5.53,-8.96 8.71,-18.87 9.25,-29.52 0.11,-2.41 -0.69,-4.29 -2.13,-6.09 -1.03,-1.29 -1.96,-2.67 -2.78,-4.1 -1.22,-2.17 -1.16,-4.38 -0.16,-6.7 3.31,-7.65 7.88,-14.56 12.34,-21.55 8.66,-13.59 18.28,-26.47 28.96,-38.51 9.68,-10.92 20.59,-20.48 33.12,-28.08 2.26,-1.37 4.59,-2.63 7.15,-4.09 -0.46,-0.57 -0.8,-1.08 -1.22,-1.49 -5.61,-5.52 -11.73,-10.62 -16.73,-16.64 -5.62,-6.78 -10.91,-13.89 -14.57,-22.14 -5.92,-13.38 -9.53,-27.39 -12.56,-41.61 -1.78,-8.33 -3.62,-16.67 -5.08,-25.07 -0.86,-4.9 -0.99,-9.92 -1.51,-14.88 -1.38,-13.23 -2.77,-26.45 -4.19,-39.67 -1.24,-11.44 -2.57,-22.88 -3.77,-34.33 -0.26,-2.42 -0.3,-4.88 -0.16,-7.31 0.05,-1.14 0.5,-2.46 1.23,-3.32 1.4,-1.68 2.97,-3.31 4.75,-4.59 12.92,-9.31 27.34,-15.44 42.57,-19.82 13.02,-3.74 26.29,-5.91 39.83,-6.8 17.24,-1.13 34.29,0.03 51.31,2.66 23.9,3.68 46.87,10.55 69.25,19.58 2.12,0.86 4.15,2.09 5.97,3.48 2.98,2.27 4.3,5.52 4.67,9.22 0.56,5.57 -0.07,11.05 -0.9,16.55 -1.87,12.39 -4.47,24.65 -7.87,36.69 -4.13,14.6 -8.91,29.01 -13.24,43.55 -1.36,4.56 -2.22,9.26 -3.26,13.91 -2.53,11.25 -4.91,22.53 -7.62,33.73 -1.12,4.61 -2.86,9.08 -4.49,13.56 -3.03,8.31 -5.54,16.87 -10.29,24.47 -0.93,1.49 -1.95,2.95 -3.15,4.23 -3.04,3.22 -6.16,6.38 -9.34,9.47 -1.5,1.44 -3.22,2.66 -4.82,4 -0.21,0.19 -0.34,0.48 -0.42,0.59 6.94,2.73 13.91,5.21 20.66,8.18 12.97,5.72 24.89,13.2 35.43,22.7 7.62,6.86 14.28,14.55 19,23.76 2.29,4.46 3.38,9.16 2.91,14.14l11.15 108.04z"/>
  </g>
  <path class="fil1" d="M2360.29 78.2c-0.29,3.99 -0.51,7.51 -0.8,11.02 -0.22,2.66 -0.63,3.14 -3.22,3.07 -4.42,-0.11 -8.83,-0.38 -13.24,-0.66 -1.85,-0.13 -2.42,-0.78 -2.46,-2.83 -0.07,-3.76 -0.02,-7.52 -0.02,-11.69 -2.54,-0.23 -5.35,-0.51 -8.16,-0.75 -0.77,-0.06 -1.55,0.03 -2.33,-0.01 -2.51,-0.13 -3.26,-0.72 -3.24,-3.17 0.04,-4.42 0.22,-8.84 0.47,-13.25 0.12,-2.06 1.08,-2.76 3.41,-2.68 2.76,0.1 5.51,0.36 8.27,0.51 0.85,0.06 1.72,0.01 2.88,0.01 0.24,-2.82 0.47,-5.43 0.68,-8.04 0.06,-0.77 -0.02,-1.55 0.03,-2.32 0.2,-3.37 1.04,-4.13 4.29,-3.93 3.65,0.23 7.29,0.47 10.93,0.67 3.4,0.19 3.97,0.86 3.89,4.27 -0.08,3.3 -0.02,6.6 -0.02,10.41 2.84,0.2 5.76,0.47 8.7,0.61 4.81,0.23 5.52,1.14 5,5.79 -0.33,3.07 -0.24,6.18 -0.4,9.27 -0.22,3.83 -1.26,4.57 -5,4.18 -3.05,-0.32 -6.14,-0.32 -9.66,-0.48z"/>
  <path class="fil1" d="M2386.21 193.05c-4.94,4.3 -9.27,8.42 -13.96,12.07 -6.24,4.85 -13.4,7.85 -21.36,8.2 -6.91,0.3 -13.34,-1.68 -19.16,-5.46 -6.12,-3.98 -11.02,-9.2 -15.15,-15.18 -0.69,-1 -1.35,-2.02 -2.13,-3.19 -1.21,0.22 -2.39,0.48 -3.57,0.63 -2.38,0.29 -3.99,-0.84 -4.37,-3.01 -0.45,-2.68 0.37,-4.16 2.82,-4.79 1.71,-0.45 3.45,-0.76 5.18,-1.12 3.26,-0.66 4.33,-0.21 5.98,2.69 3.32,5.84 7.6,10.86 12.8,15.11 4.5,3.66 9.56,6.06 15.38,6.36 3.89,0.2 7.65,-0.78 11.23,-2.36 4.82,-2.12 9.12,-5.03 12.93,-8.61 3.06,-2.87 5.93,-5.94 8.83,-8.98 2,-2.1 3.69,-2.42 6.16,-0.94 0.95,0.56 1.87,1.17 2.81,1.77 2.4,1.55 3.19,3.75 2.11,5.83 -1.08,2.07 -2.96,2.52 -5.74,1.36 -0.39,-0.16 -0.76,-0.37 -0.79,-0.38z"/>
  <path class="fil2" d="M2476.18 304.9c0,0 -10.82,18.76 -27.07,38.41 0,0 -3.21,3.02 0.77,7.87l18.42 29.68 19.03 32.08 9.27 -4.72 -20.42 -103.32z"/>
  <path class="fil1" d="M2480.1 449.03c3.16,-7.49 6.12,-15.07 8.94,-22.68 5.53,-14.95 12.19,-29.26 10.13,-45.62 -1.18,-9.37 -5.02,-18.17 -7.97,-27.07 -4.63,-13.97 -13.72,-34.19 -18.95,-47.95l-19.16 19.73c6.41,9.35 12.34,19.1 17.62,29.13 6.92,13.13 11.74,27.08 11.19,42.09 -0.63,16.86 -4.97,33.19 -8.76,49.55l6.96 2.82z"/>
  <path class="fil1" d="M2469.69 450.74c-0.64,-0.07 -2.1,0.12 -2.23,0.11 -10.94,2.02 -18.22,17.04 -18.22,17.04 -1.77,3.02 -2.06,10.26 -3.31,12.6 -4.05,6.03 -8.6,14.71 -8.6,14.71 -1.81,5.16 3.42,5.83 3.42,5.83 6.73,-1.9 10.89,-14.57 10.89,-14.57 4.67,-7.82 3.78,4.78 3.78,4.78 -7.45,18.31 -8.79,26.45 -8.79,26.45 -0.73,12.49 6.67,5.15 6.67,5.15 0.61,15.33 9.92,-3.03 9.92,-3.03 -0.39,3.51 0.09,5.53 2.39,4.6 6.23,-2.21 11.28,-19.85 11.28,-19.85 0.89,3.22 4.67,3.96 6.25,-11.75 0.47,-4.95 0.18,-18.11 0.41,-22.64 0.26,-6.18 -3.91,-12.6 -2.67,-14.62 3.7,-5.83 5.33,-11.05 5.33,-11.05 0,0 -15.73,-7.75 -19.46,-5.01l0.71 11.36 2.23 -0.11z"/>
  <path class="fil1" d="M381.02 394.68c0,-31.88 -28.09,-56.16 -62.24,-56.16l-135.86 0 -28.84 131.3 144.97 0c61.48,0 81.97,-39.46 81.97,-75.14zm-37.19 214.04c0,-35.67 -25.05,-60.71 -66.79,-60.71l-140.42 0 -31.12 140.41 148.01 0c58.44,0 90.32,-37.95 90.32,-79.7zm-343.83 157.88l111.57 -506.26 230.74 0c81.97,0 133.59,53.13 133.59,119.16 0,69.83 -53.89,127.52 -116.13,133.59 45.54,12.14 73.62,57.69 73.62,103.23 0,72.1 -51.61,150.28 -175.33,150.28l-258.06 0z"/>
  <polygon class="fil1" points="491.84,766.6 603.41,260.34 692.21,260.34 611.75,625.42 951.03,260.34 1042.11,260.34 930.54,766.6 840.97,766.6 924.46,391.65 577.6,766.6 "/>
  <polygon class="fil1" points="1158.99,766.6 1253.11,338.52 1099.79,338.52 1117.25,260.34 1512.69,260.34 1495.23,338.52 1341.92,338.52 1247.8,766.6 "/>
  <path class="fil1" d="M1773.79 349.9l-144.21 241.37 182.15 0 -37.94 -241.37zm61.48 416.7l-15.94 -97.16 -232.26 0 -58.44 97.16 -105.5 0 310.43 -506.26 110.82 0 87.28 506.26 -96.39 0z"/>
  <polygon class="fil1" points="3030.7,766.6 3124.82,338.52 2861.44,338.52 2767.33,766.6 2678.53,766.6 2790.1,260.34 3231.08,260.34 3119.51,766.6 "/>
  <path class="fil1" d="M3190.09 740.79l47.07 -72.86c14.42,15.93 35.67,28.84 59.95,28.84 37.2,0 57.68,-18.22 91.08,-63.76l3.8 -6.07 -107.02 -366.6 95.63 0 74.39 295.26 204.92 -295.26 106.27 0 -301.33 411.39c-44.78,60.71 -92.59,103.97 -179.12,103.97 -45.54,0 -83.5,-18.21 -95.64,-34.91z"/>
  <path class="fil1" d="M3693.31 696.77c54.65,0 88.04,-26.57 138.9,-176.09l86.53 -260.34 343.82 0 -110.81 506.26 -88.8 0 94.11 -428.09 -175.33 0 -62.99 188.24c-71.35,214.8 -144.98,248.96 -242.88,248.96l17.45 -78.94z"/>
 </g>
</svg>